<?xml version="1.0" encoding="utf-8"?>
<!-- Generator: Adobe Illustrator 16.0.0, SVG Export Plug-In . SVG Version: 6.00 Build 0)  -->
<!DOCTYPE svg PUBLIC "-//W3C//DTD SVG 1.1//EN" "http://www.w3.org/Graphics/SVG/1.1/DTD/svg11.dtd">
<svg version="1.1" id="Capa_1" xmlns="http://www.w3.org/2000/svg" xmlns:xlink="http://www.w3.org/1999/xlink" x="0px" y="0px"
	 width="100px" height="55.368px" viewBox="0 0 100 55.368" enable-background="new 0 0 100 55.368" xml:space="preserve">
<path d="M74.003,18.537L66.019,5.658c-0.23-0.399-1.581-2.633-3.64-3.922C59.685,0.049,57.169,0,56.891,0H39.937
	c-9.727,0-18.856,3.498-26.114,9.523L2.893,3.147c-0.917-0.535-2.095-0.225-2.63,0.692c-0.536,0.917-0.226,2.095,0.692,2.63
	l9.894,5.772C6.058,17.048,2.314,23.075,0.093,29.979c-0.096,0.296-0.107,0.598-0.062,0.886C0.015,30.965,0,31.066,0,31.17v12.26
	c0,1.062,0.861,1.923,1.923,1.923h10.678c0.99,5.638,5.918,9.936,11.834,9.936s10.845-4.298,11.835-9.936h33.69
	c0.957,5.677,5.904,10.016,11.85,10.016c5.944,0,10.892-4.339,11.849-10.016h4.418c1.062,0,1.923-0.861,1.923-1.923v-9.616
	C100,21.638,91.248,18.826,74.003,18.537z M39.937,3.846h16.938c0.017,0,1.697,0.043,3.464,1.149
	c1.109,0.695,2.078,2.112,2.355,2.595c0.012,0.022,0.025,0.044,0.038,0.066l6.73,10.855c-17.134,0.033-50.989,0.73-59.72,0.916
	C16.837,9.788,27.885,3.846,39.937,3.846z M24.436,51.441c-4.458,0-8.089-3.589-8.166-8.03c0-0.002,0-0.004,0-0.006
	c0-0.049-0.003-0.099-0.007-0.154c0-0.151,0.014-0.299,0.023-0.449c0.007-0.128,0.008-0.258,0.021-0.384
	c0.015-0.145,0.043-0.285,0.065-0.427c0.02-0.127,0.034-0.257,0.06-0.382c0.028-0.136,0.068-0.266,0.103-0.399
	c0.033-0.128,0.061-0.257,0.1-0.382c0.04-0.125,0.09-0.246,0.135-0.369c0.047-0.127,0.088-0.257,0.141-0.381
	c0.049-0.116,0.109-0.227,0.165-0.341c0.06-0.125,0.115-0.251,0.181-0.372c0.059-0.107,0.127-0.209,0.191-0.314
	c0.073-0.12,0.141-0.243,0.219-0.358c0.067-0.1,0.144-0.191,0.216-0.289c0.084-0.113,0.165-0.23,0.255-0.339
	c0.076-0.092,0.161-0.176,0.241-0.266c0.095-0.105,0.186-0.214,0.287-0.313c0.084-0.084,0.177-0.16,0.265-0.241
	c0.104-0.096,0.206-0.195,0.315-0.286c0.094-0.078,0.195-0.146,0.293-0.219c0.111-0.083,0.22-0.172,0.336-0.25
	c0.104-0.07,0.214-0.13,0.321-0.196c0.117-0.071,0.231-0.147,0.352-0.212c0.112-0.061,0.231-0.111,0.346-0.167
	c0.123-0.059,0.242-0.123,0.367-0.176c0.124-0.053,0.254-0.093,0.381-0.14c0.123-0.044,0.242-0.095,0.368-0.135
	c0.147-0.045,0.3-0.078,0.45-0.115c0.111-0.028,0.219-0.063,0.331-0.085c0.175-0.036,0.355-0.057,0.533-0.082
	c0.093-0.013,0.183-0.033,0.276-0.042c0.274-0.028,0.552-0.042,0.833-0.042c0.281,0,0.559,0.015,0.833,0.042
	c0.096,0.01,0.188,0.03,0.282,0.043c0.177,0.024,0.354,0.045,0.527,0.081c0.114,0.023,0.224,0.058,0.335,0.086
	c0.149,0.037,0.3,0.069,0.446,0.114c0.118,0.037,0.23,0.084,0.346,0.127c0.135,0.049,0.272,0.092,0.404,0.148
	c0.116,0.049,0.226,0.109,0.34,0.163c0.125,0.06,0.252,0.115,0.374,0.181c0.116,0.063,0.225,0.136,0.337,0.204
	c0.112,0.068,0.228,0.131,0.335,0.205c0.11,0.074,0.213,0.158,0.32,0.238c0.103,0.077,0.21,0.15,0.31,0.232
	c0.102,0.084,0.196,0.177,0.293,0.266c0.096,0.087,0.195,0.169,0.287,0.261c0.093,0.093,0.178,0.194,0.266,0.291
	c0.087,0.096,0.179,0.188,0.262,0.288c0.084,0.101,0.158,0.21,0.237,0.315c0.078,0.104,0.161,0.205,0.234,0.313
	c0.074,0.109,0.138,0.224,0.207,0.337c0.068,0.112,0.141,0.22,0.204,0.335c0.062,0.113,0.114,0.233,0.17,0.351
	c0.059,0.121,0.122,0.238,0.175,0.362c0.05,0.118,0.089,0.241,0.134,0.361c0.048,0.129,0.101,0.256,0.142,0.388
	c0.039,0.122,0.065,0.249,0.098,0.374c0.036,0.135,0.076,0.269,0.105,0.408c0.026,0.125,0.04,0.254,0.06,0.382
	c0.022,0.142,0.05,0.282,0.065,0.427c0.013,0.126,0.014,0.257,0.021,0.385c0.009,0.149,0.022,0.297,0.023,0.448
	c-0.003,0.048-0.006,0.097-0.007,0.146c0,0.003,0,0.006,0,0.01C32.528,47.85,28.896,51.441,24.436,51.441z M81.811,51.521
	c-4.487,0-8.139-3.634-8.17-8.113c-0.001-0.004,0.001-0.008,0.001-0.012c-0.001-0.024-0.002-0.048-0.003-0.071
	c0-0.142,0.014-0.281,0.021-0.42c0.008-0.138,0.01-0.277,0.024-0.413c0.014-0.139,0.041-0.273,0.062-0.41
	c0.021-0.133,0.036-0.268,0.063-0.398c0.028-0.135,0.068-0.265,0.103-0.397c0.033-0.128,0.062-0.258,0.102-0.384
	c0.04-0.129,0.092-0.252,0.138-0.378c0.046-0.123,0.087-0.249,0.138-0.37c0.053-0.122,0.115-0.238,0.173-0.357
	c0.058-0.118,0.11-0.239,0.173-0.355c0.063-0.114,0.136-0.222,0.203-0.333c0.068-0.113,0.133-0.229,0.207-0.338
	c0.072-0.107,0.155-0.207,0.232-0.31c0.079-0.106,0.154-0.215,0.238-0.317c0.083-0.099,0.173-0.189,0.259-0.284
	c0.09-0.099,0.175-0.201,0.27-0.295c0.091-0.09,0.189-0.172,0.284-0.258c0.099-0.089,0.193-0.184,0.296-0.268
	c0.1-0.082,0.207-0.155,0.311-0.232c0.106-0.079,0.208-0.163,0.318-0.237c0.109-0.074,0.227-0.138,0.339-0.207
	c0.111-0.067,0.219-0.14,0.334-0.202c0.119-0.065,0.245-0.119,0.368-0.177c0.114-0.055,0.227-0.116,0.345-0.166
	c0.128-0.054,0.262-0.097,0.394-0.145c0.119-0.042,0.234-0.092,0.355-0.129c0.144-0.045,0.292-0.076,0.438-0.113
	c0.115-0.029,0.227-0.064,0.343-0.088c0.177-0.036,0.358-0.058,0.538-0.083c0.091-0.012,0.179-0.032,0.271-0.042
	c0.274-0.027,0.553-0.042,0.834-0.042s0.559,0.015,0.833,0.042c0.091,0.01,0.18,0.029,0.271,0.042
	c0.18,0.024,0.362,0.046,0.538,0.083c0.107,0.021,0.21,0.055,0.315,0.081c0.156,0.038,0.314,0.073,0.467,0.12
	c0.109,0.035,0.215,0.08,0.323,0.118c0.143,0.051,0.287,0.098,0.426,0.156c0.107,0.046,0.209,0.102,0.314,0.152
	c0.134,0.063,0.27,0.122,0.399,0.192c0.104,0.057,0.201,0.123,0.302,0.184c0.124,0.074,0.251,0.144,0.37,0.225
	c0.102,0.068,0.195,0.146,0.293,0.218c0.112,0.083,0.229,0.163,0.337,0.251c0.094,0.078,0.18,0.164,0.271,0.246
	c0.104,0.093,0.211,0.183,0.31,0.281c0.086,0.086,0.164,0.18,0.246,0.27c0.094,0.103,0.192,0.202,0.281,0.31
	c0.078,0.095,0.148,0.197,0.223,0.295c0.083,0.11,0.171,0.218,0.248,0.332c0.069,0.104,0.131,0.212,0.195,0.318
	c0.072,0.118,0.148,0.232,0.215,0.354c0.061,0.11,0.11,0.226,0.165,0.338c0.061,0.124,0.126,0.246,0.181,0.374
	c0.05,0.117,0.088,0.238,0.132,0.358c0.049,0.13,0.103,0.258,0.145,0.391c0.038,0.123,0.065,0.25,0.099,0.375
	c0.035,0.135,0.075,0.268,0.104,0.405c0.027,0.129,0.042,0.262,0.063,0.394c0.021,0.138,0.049,0.274,0.063,0.414
	c0.015,0.136,0.016,0.276,0.023,0.415c0.008,0.14,0.021,0.278,0.021,0.418c-0.001,0.026-0.002,0.053-0.003,0.07
	c0,0.004,0.002,0.008,0.001,0.012C89.948,47.888,86.297,51.521,81.811,51.521z M96.153,41.506h-2.466
	c0-0.004-0.001-0.009-0.002-0.014c-0.052-0.332-0.12-0.659-0.197-0.981c-0.009-0.033-0.016-0.065-0.023-0.098
	c-0.078-0.31-0.17-0.614-0.271-0.914c-0.017-0.047-0.031-0.095-0.048-0.141c-0.104-0.292-0.218-0.579-0.342-0.86
	c-0.021-0.047-0.043-0.094-0.064-0.141c-0.129-0.282-0.268-0.557-0.417-0.826c-0.021-0.038-0.043-0.075-0.064-0.112
	c-0.157-0.277-0.324-0.549-0.503-0.811c-0.01-0.015-0.021-0.028-0.03-0.043c-0.181-0.264-0.372-0.519-0.573-0.768
	c-0.015-0.019-0.028-0.037-0.043-0.055c-0.2-0.243-0.41-0.477-0.628-0.704c-0.031-0.032-0.062-0.065-0.093-0.097
	c-0.214-0.218-0.436-0.427-0.665-0.627c-0.039-0.035-0.077-0.068-0.116-0.101c-0.231-0.198-0.47-0.387-0.716-0.567
	c-0.037-0.028-0.076-0.054-0.114-0.082c-0.255-0.182-0.516-0.356-0.784-0.518c-0.024-0.014-0.049-0.027-0.073-0.042
	c-0.275-0.164-0.558-0.317-0.848-0.459c-0.012-0.006-0.023-0.013-0.036-0.018c-0.288-0.14-0.585-0.267-0.887-0.384
	c-0.04-0.015-0.079-0.032-0.119-0.047c-0.291-0.109-0.588-0.206-0.888-0.293c-0.052-0.015-0.104-0.03-0.155-0.044
	c-0.3-0.082-0.604-0.153-0.912-0.212c-0.052-0.01-0.104-0.019-0.156-0.028c-0.314-0.056-0.634-0.102-0.957-0.133
	c-0.038-0.003-0.078-0.005-0.116-0.008c-0.342-0.029-0.686-0.048-1.034-0.048c-0.35,0-0.693,0.019-1.035,0.048
	c-0.038,0.003-0.077,0.005-0.116,0.008c-0.323,0.031-0.642,0.077-0.957,0.133c-0.052,0.009-0.104,0.018-0.156,0.028
	c-0.309,0.059-0.612,0.13-0.912,0.212c-0.052,0.014-0.104,0.029-0.154,0.044c-0.301,0.087-0.598,0.184-0.889,0.293
	c-0.039,0.015-0.079,0.032-0.119,0.047c-0.302,0.117-0.599,0.244-0.887,0.384c-0.013,0.005-0.024,0.012-0.036,0.018
	c-0.29,0.142-0.571,0.295-0.848,0.459c-0.024,0.015-0.049,0.028-0.073,0.042c-0.269,0.162-0.529,0.336-0.784,0.518
	c-0.038,0.027-0.076,0.054-0.114,0.082c-0.246,0.18-0.484,0.37-0.716,0.567c-0.039,0.033-0.077,0.066-0.116,0.101
	c-0.229,0.201-0.451,0.41-0.665,0.627c-0.031,0.032-0.062,0.065-0.093,0.097c-0.218,0.228-0.428,0.461-0.628,0.704
	c-0.014,0.018-0.028,0.037-0.043,0.055c-0.201,0.249-0.393,0.504-0.573,0.768c-0.01,0.015-0.021,0.028-0.03,0.043
	c-0.179,0.262-0.345,0.534-0.503,0.811c-0.021,0.038-0.044,0.074-0.064,0.112c-0.149,0.269-0.287,0.544-0.417,0.826
	c-0.021,0.047-0.043,0.094-0.064,0.141c-0.124,0.281-0.238,0.568-0.342,0.86c-0.017,0.046-0.031,0.094-0.048,0.141
	c-0.101,0.299-0.193,0.604-0.271,0.914c-0.008,0.032-0.015,0.065-0.023,0.098c-0.077,0.322-0.146,0.649-0.196,0.981
	c-0.001,0.005-0.003,0.01-0.003,0.014H36.327c-0.001-0.007-0.003-0.015-0.004-0.022c-0.049-0.325-0.113-0.646-0.188-0.962
	c-0.011-0.045-0.021-0.092-0.032-0.137c-0.076-0.306-0.164-0.607-0.263-0.904c-0.017-0.05-0.033-0.1-0.051-0.149
	c-0.102-0.293-0.215-0.583-0.339-0.866c-0.02-0.044-0.04-0.088-0.06-0.133c-0.13-0.287-0.269-0.569-0.421-0.844
	c-0.016-0.029-0.033-0.057-0.049-0.085c-0.161-0.287-0.331-0.567-0.514-0.839c-0.001-0.002-0.002-0.003-0.003-0.004
	c-0.183-0.271-0.379-0.532-0.583-0.787c-0.022-0.028-0.044-0.056-0.066-0.083c-0.196-0.241-0.403-0.472-0.617-0.698
	c-0.034-0.035-0.067-0.071-0.102-0.106c-0.212-0.218-0.434-0.428-0.663-0.63c-0.038-0.034-0.077-0.067-0.116-0.1
	c-0.233-0.201-0.473-0.393-0.721-0.575c-0.034-0.025-0.07-0.049-0.105-0.075c-0.259-0.186-0.523-0.363-0.796-0.529
	c-0.017-0.01-0.035-0.02-0.052-0.03c-0.276-0.165-0.559-0.319-0.849-0.462c-0.02-0.009-0.039-0.021-0.059-0.03
	c-0.287-0.14-0.582-0.266-0.881-0.383c-0.042-0.016-0.084-0.034-0.127-0.05c-0.291-0.11-0.587-0.208-0.888-0.294
	c-0.052-0.015-0.104-0.03-0.156-0.044c-0.301-0.083-0.606-0.155-0.917-0.214c-0.051-0.01-0.102-0.019-0.153-0.028
	c-0.318-0.056-0.639-0.103-0.964-0.134c-0.037-0.003-0.075-0.005-0.112-0.008c-0.344-0.03-0.69-0.048-1.042-0.048
	c-0.352,0-0.698,0.019-1.042,0.048c-0.037,0.003-0.075,0.005-0.112,0.008c-0.326,0.031-0.646,0.078-0.964,0.134
	c-0.051,0.009-0.102,0.018-0.153,0.027c-0.31,0.06-0.615,0.131-0.917,0.214c-0.052,0.014-0.104,0.029-0.156,0.044
	c-0.301,0.087-0.598,0.185-0.889,0.294c-0.042,0.016-0.084,0.034-0.127,0.05c-0.299,0.117-0.594,0.243-0.881,0.383
	c-0.02,0.009-0.039,0.021-0.059,0.03c-0.29,0.144-0.572,0.297-0.848,0.462c-0.017,0.01-0.035,0.02-0.052,0.03
	c-0.273,0.165-0.537,0.343-0.796,0.528c-0.035,0.025-0.071,0.05-0.106,0.076c-0.248,0.182-0.487,0.374-0.72,0.574
	c-0.039,0.034-0.078,0.067-0.117,0.101c-0.228,0.202-0.449,0.411-0.662,0.629c-0.035,0.035-0.068,0.071-0.103,0.107
	c-0.213,0.225-0.42,0.456-0.616,0.696c-0.023,0.028-0.044,0.057-0.067,0.085c-0.203,0.254-0.398,0.515-0.581,0.786
	c-0.002,0.002-0.003,0.004-0.005,0.007c-0.182,0.271-0.352,0.55-0.512,0.835c-0.016,0.029-0.034,0.058-0.05,0.087
	c-0.151,0.274-0.29,0.556-0.42,0.842c-0.021,0.046-0.042,0.09-0.062,0.136c-0.123,0.283-0.236,0.571-0.338,0.864
	c-0.018,0.05-0.035,0.1-0.051,0.151c-0.099,0.296-0.187,0.597-0.263,0.902c-0.011,0.046-0.021,0.093-0.032,0.139
	c-0.074,0.316-0.139,0.637-0.188,0.961c-0.001,0.007-0.003,0.015-0.004,0.022H3.847V31.17c0-0.075-0.014-0.146-0.022-0.219
	c0.893-2.726,2.047-5.298,3.422-7.696c0.157,0.038,0.319,0.064,0.488,0.062c0.437-0.01,43.871-0.961,62.938-0.961
	c21.94,0,25.48,3.378,25.48,11.458V41.506z"/>
</svg>
