<?xml version="1.0" encoding="utf-8"?>
<!-- Generator: Adobe Illustrator 16.0.0, SVG Export Plug-In . SVG Version: 6.00 Build 0)  -->
<!DOCTYPE svg PUBLIC "-//W3C//DTD SVG 1.1//EN" "http://www.w3.org/Graphics/SVG/1.1/DTD/svg11.dtd">
<svg version="1.1" id="Capa_1" xmlns="http://www.w3.org/2000/svg" xmlns:xlink="http://www.w3.org/1999/xlink" x="0px" y="0px"
	 width="194.905px" height="140.707px" viewBox="0 0 194.905 140.707" enable-background="new 0 0 194.905 140.707"
	 xml:space="preserve">
<g>
	<g>
		<path fill="#0FCA44" d="M41.99,71.283h8.58v8.581c0,2.015,1.64,3.654,3.655,3.654h16.313c2.015,0,3.653-1.64,3.653-3.654v-8.581
			h8.581c2.015,0,3.654-1.64,3.654-3.654V51.316c0-2.015-1.64-3.654-3.654-3.654h-8.581v-8.581c0-2.015-1.639-3.654-3.653-3.654
			H54.225c-2.016,0-3.655,1.64-3.655,3.654v8.581h-8.58c-2.015,0-3.655,1.64-3.655,3.654v16.313
			C38.335,69.644,39.975,71.283,41.99,71.283z M70.538,54.97h8.579v9.005h-8.579c-2.016,0-3.655,1.64-3.655,3.654v8.579h-9.004
			v-8.579c0-2.015-1.639-3.654-3.653-3.654h-8.581V54.97h8.581c2.015,0,3.653-1.639,3.653-3.653v-8.58h9.004v8.58
			C66.882,53.331,68.522,54.97,70.538,54.97z"/>
		<path fill="#0FCA44" d="M192.353,63.296l-21.396-6.756L160.14,25.274c-0.508-1.472-1.896-2.461-3.455-2.461h-6.582
			c-0.619-5.687-5.504-9.985-11.355-9.766c-5.422,0.217-9.885,4.442-10.477,9.766h-3.516V7.011c0-2.015-1.639-3.654-3.654-3.654
			H3.654C1.639,3.356,0,4.996,0,7.011v104.908c0,2.015,1.639,3.654,3.654,3.654h27.003c-0.689,5.597,0.728,11.165,4.033,15.775
			c3.489,4.866,8.664,8.082,14.571,9.056c1.215,0.201,2.451,0.303,3.673,0.303c11.006,0,20.296-7.895,22.089-18.771
			c0.348-2.109,0.393-4.245,0.134-6.362h58.772c-0.689,5.597,0.727,11.165,4.033,15.775c3.488,4.866,8.662,8.082,14.57,9.056
			c1.215,0.201,2.451,0.303,3.674,0.303c11.006,0,20.295-7.895,22.088-18.771c0.348-2.11,0.393-4.246,0.133-6.363h12.826
			c2.014,0,3.652-1.64,3.652-3.654V66.78C194.905,65.179,193.88,63.778,192.353,63.296z M142.669,22.826h-6.965
			c0.502-1.458,1.873-2.477,3.48-2.479C140.796,20.35,142.169,21.368,142.669,22.826z M124.761,55.817V30.128l29.32,0.007
			l8.889,25.683H124.761z M187.597,69.466v38.799H176.28c-3.736-7.644-11.576-12.555-20.115-12.555
			c-3.236,0-6.381,0.692-9.344,2.057c-4.684,2.157-8.48,5.873-10.74,10.498h-11.32V63.128h42.76L187.597,69.466z M156.181,103.025
			c8.328,0,15.104,6.776,15.104,15.104c-0.01,8.32-6.785,15.097-15.104,15.106c-8.33,0-15.107-6.776-15.107-15.105
			C141.073,109.802,147.851,103.025,156.181,103.025z M52.906,103.025c8.329,0,15.105,6.776,15.105,15.104
			c-0.01,8.32-6.786,15.097-15.105,15.106c-8.33,0-15.106-6.776-15.106-15.105C37.8,109.802,44.577,103.025,52.906,103.025z
			 M7.309,108.265v-97.6h110.143v97.6H73c-3.743-7.624-11.573-12.533-20.092-12.549h-0.002c-8.521,0.013-16.354,4.922-20.097,12.549
			H7.309z"/>
		<path fill="#0FCA44" d="M141.771,66.054h-9.787c-2.016,0-3.656,1.64-3.656,3.655c0,2.015,1.641,3.654,3.656,3.654h9.787
			c2.014,0,3.654-1.64,3.654-3.654C145.425,67.693,143.784,66.054,141.771,66.054z"/>
	</g>
	<g>
		<line fill="#0FCA44" x1="129.806" y1="9.076" x2="127.544" y2="4.948"/>
		<path fill="#0FCA44" d="M129.808,11.076c-0.707,0-1.393-0.375-1.756-1.039l-2.262-4.128c-0.531-0.969-0.176-2.185,0.793-2.715
			c0.969-0.531,2.184-0.175,2.715,0.793l2.262,4.128c0.531,0.969,0.176,2.185-0.793,2.715
			C130.462,10.997,130.132,11.076,129.808,11.076z"/>
	</g>
	<g>
		<line fill="#0FCA44" x1="148.606" y1="10.326" x2="151.347" y2="6.128"/>
		<path fill="#0FCA44" d="M148.604,12.326c-0.375,0-0.754-0.105-1.092-0.325c-0.926-0.604-1.186-1.844-0.582-2.769l2.742-4.198
			c0.604-0.924,1.842-1.184,2.768-0.581c0.926,0.604,1.186,1.844,0.582,2.769l-2.742,4.198
			C149.897,12.007,149.257,12.326,148.604,12.326z"/>
	</g>
	<g>
		<line fill="#0FCA44" x1="140.341" y1="7.014" x2="140.464" y2="2"/>
		<path fill="#0FCA44" d="M140.341,9.014c-0.016,0-0.033,0-0.051-0.001c-1.104-0.027-1.977-0.944-1.949-2.049l0.125-5.014
			c0.025-1.104,0.918-1.984,2.049-1.949c1.104,0.027,1.977,0.944,1.949,2.049l-0.125,5.014
			C142.313,8.15,141.423,9.014,140.341,9.014z"/>
	</g>
</g>
</svg>
