<?xml version="1.0" encoding="utf-8"?>
<!-- Generator: Adobe Illustrator 16.0.0, SVG Export Plug-In . SVG Version: 6.00 Build 0)  -->
<!DOCTYPE svg PUBLIC "-//W3C//DTD SVG 1.1//EN" "http://www.w3.org/Graphics/SVG/1.1/DTD/svg11.dtd">
<svg version="1.1" id="Capa_1" xmlns="http://www.w3.org/2000/svg" xmlns:xlink="http://www.w3.org/1999/xlink" x="0px" y="0px"
	 width="100px" height="78.789px" viewBox="0 0 100 78.789" enable-background="new 0 0 100 78.789" xml:space="preserve">
<g>
	<path d="M97.313,69.184H77.439v-9.166h10.6c1.483,0,2.687-1.202,2.687-2.687c0-1.483-1.203-2.687-2.687-2.687h-10.6
		V2.687C77.439,1.203,76.236,0,74.753,0s-2.687,1.203-2.687,2.687V71.87c0,1.484,1.203,2.687,2.687,2.687h22.56
		c1.484,0,2.688-1.202,2.688-2.687C100,70.387,98.797,69.184,97.313,69.184z"/>
	<path d="M35.563,6.71H10.217v27.813H8.778C3.938,34.523,0,38.461,0,43.301v8.328v1.786v15.887
		c0,1.483,1.203,2.687,2.687,2.687h4.414c1.824,3.822,5.715,6.477,10.226,6.477c4.695,0,8.731-2.87,10.45-6.947h9.144
		c2.749,4.364,7.608,7.271,13.136,7.271c5.327,0,10.035-2.699,12.83-6.801h2.752c1.483,0,2.687-1.203,2.687-2.687v-9.284v-8.389
		V39.472C68.324,21.407,53.628,6.71,35.563,6.71z M17.326,73.092c-3.287,0-5.961-2.674-5.961-5.961c0-3.288,2.674-5.962,5.961-5.962
		c3.287,0,5.961,2.674,5.961,5.962C23.288,70.418,20.613,73.092,17.326,73.092z M28.61,66.145
		c-0.502-5.789-5.367-10.349-11.284-10.349c-6.076,0-11.036,4.809-11.309,10.819H5.373v-13.2v-1.786v-8.328
		c0-1.877,1.527-3.405,3.405-3.405h10.077h11.287l9.343,11.944c-0.63,0.605-1.205,1.274-1.73,1.991
		c-2.014,2.617-3.215,5.891-3.215,9.441c0,0.981,0.096,1.94,0.271,2.872H28.61z M58.858,58.521c0.681,1.379,1.026,2.846,1.026,4.357
		c0,5.445-4.43,9.875-9.876,9.875c-5.445,0-9.875-4.43-9.875-9.875c0-1.512,0.345-2.979,1.026-4.357
		c0.205-0.416,0.437-0.812,0.69-1.188c1.845-2.541,4.832-4.204,8.206-4.204c2.625,0,5.013,1.011,6.815,2.653
		C57.668,56.559,58.344,57.479,58.858,58.521z M62.951,44.518L52.078,32.181c-0.981-1.114-2.679-1.22-3.792-0.239
		s-1.22,2.678-0.239,3.792l14.904,16.911v2.001h-0.006c-0.713-1.062-1.554-2.031-2.5-2.886c-0.161-0.152-0.328-0.297-0.496-0.442
		c-0.076-0.065-0.15-0.136-0.229-0.201c-0.258-0.213-0.52-0.418-0.79-0.613c-0.02-0.015-0.04-0.027-0.061-0.042
		c-0.25-0.179-0.505-0.351-0.766-0.514c-0.093-0.06-0.19-0.111-0.284-0.169c-0.191-0.113-0.382-0.227-0.578-0.332
		c-0.113-0.062-0.229-0.117-0.345-0.176c-0.182-0.092-0.364-0.183-0.549-0.268c-0.124-0.057-0.251-0.109-0.378-0.163
		c-0.182-0.077-0.363-0.151-0.548-0.221c-0.132-0.05-0.264-0.098-0.396-0.144c-0.185-0.064-0.371-0.124-0.558-0.182
		c-0.137-0.04-0.271-0.08-0.409-0.118c-0.19-0.052-0.384-0.1-0.577-0.144c-0.136-0.032-0.271-0.064-0.408-0.092
		c-0.203-0.041-0.407-0.075-0.612-0.108c-0.131-0.021-0.261-0.044-0.394-0.062c-0.227-0.031-0.455-0.052-0.684-0.072
		c-0.113-0.01-0.225-0.024-0.339-0.032c-0.343-0.023-0.689-0.036-1.037-0.036c-2.123,0-4.164,0.437-6.029,1.237L33.566,35.554
		c-0.509-0.65-1.29-1.031-2.116-1.031h-1.203H18.854H15.59v-22.44h19.974c15.102,0,27.388,12.287,27.388,27.389V44.518z"/>
</g>
</svg>
