<?xml version="1.0" encoding="utf-8"?>
<!-- Generator: Adobe Illustrator 24.1.3, SVG Export Plug-In . SVG Version: 6.00 Build 0)  -->
<svg version="1.1" id="Capa_1" xmlns="http://www.w3.org/2000/svg" xmlns:xlink="http://www.w3.org/1999/xlink" x="0px" y="0px"
	 viewBox="0 0 100 66.6" style="enable-background:new 0 0 100 66.6;" xml:space="preserve">
<g>
	<circle class="st0" cx="77" cy="57.4" r="1.9"/>
	<circle class="st0" cx="24.1" cy="57.4" r="1.9"/>
	<path class="st0" d="M29.6,16.7v5.6h-5.6c-1,0-1.9,0.8-1.9,1.9v7.4c0,1,0.8,1.9,1.9,1.9h5.6v5.6c0,1,0.8,1.9,1.9,1.9h7.4
		c1,0,1.9-0.8,1.9-1.9v-5.6h5.6c1,0,1.9-0.8,1.9-1.9v-7.4c0-1-0.8-1.9-1.9-1.9h-5.6v-5.6c0-1-0.8-1.9-1.9-1.9h-7.4
		C30.5,14.8,29.6,15.6,29.6,16.7z M33.3,24.1v-5.6H37v5.6c0,1,0.8,1.9,1.9,1.9h5.6v3.7h-5.6c-1,0-1.9,0.8-1.9,1.9V37h-3.7v-5.6
		c0-1-0.8-1.9-1.9-1.9h-5.6v-3.7h5.6C32.5,25.9,33.3,25.1,33.3,24.1z"/>
	<path class="st0" d="M89.7,29.7l-3.4-17.2c-0.2-0.9-0.9-1.5-1.8-1.5h-3.7V8.3c0-3.6-2.9-6.5-6.5-6.5s-6.5,2.9-6.5,6.5v2.8h-3.7V1.9
		c0-1-0.8-1.9-1.9-1.9H43.5c-1,0-1.9,0.8-1.9,1.9s0.8,1.9,1.9,1.9h16.8v51.8H33.2c-0.9-4.2-4.6-7.4-9.1-7.4s-8.2,3.2-9.1,7.4H6.3
		V3.7h20.5c1,0,1.9-0.8,1.9-1.9S27.9,0,26.9,0H4.5c-1,0-1.9,0.8-1.9,1.9v55.5c0,1,0.8,1.9,1.9,1.9H15c0.9,4.2,4.6,7.4,9.1,7.4
		s8.2-3.2,9.1-7.4H68c0.9,4.2,4.6,7.4,9.1,7.4c4.5,0,8.2-3.2,9.1-7.4h9.4c1,0,1.9-0.8,1.9-1.9V38.9C97.4,34.3,94,30.5,89.7,29.7
		L89.7,29.7z M71.5,8.3c0-1.5,1.2-2.8,2.8-2.8S77,6.8,77,8.3v2.8h-5.6V8.3z M82.9,14.8l3,14.8H64.1V14.8H82.9z M24.1,62.9
		c-3.1,0-5.6-2.5-5.6-5.6s2.5-5.6,5.6-5.6s5.6,2.5,5.6,5.6S27.2,62.9,24.1,62.9z M77,62.9c-3.1,0-5.6-2.5-5.6-5.6s2.5-5.6,5.6-5.6
		s5.6,2.5,5.6,5.6S80.1,62.9,77,62.9z M86.1,55.5c-0.9-4.2-4.6-7.4-9.1-7.4s-8.2,3.2-9.1,7.4h-3.9V33.3h24c0,0,0,0,0,0c0,0,0,0,0,0
		c3.1,0,5.5,2.5,5.5,5.6v1.9h-5.6c-1,0-1.9,0.8-1.9,1.9s0.8,1.9,1.9,1.9h5.6v11.1L86.1,55.5L86.1,55.5z"/>
	<circle class="st0" cx="35.2" cy="1.9" r="1.9"/>
</g>
</svg>