<?xml version="1.0" encoding="utf-8"?>
<!-- Generator: Adobe Illustrator 24.1.3, SVG Export Plug-In . SVG Version: 6.00 Build 0)  -->
<svg version="1.1" id="Capa_1" xmlns="http://www.w3.org/2000/svg" xmlns:xlink="http://www.w3.org/1999/xlink" x="0px" y="0px"
	 viewBox="0 0 100 100" style="enable-background:new 0 0 100 100;" xml:space="preserve">
<path class="st0" d="M0.5,97.1c0,1.3,1.1,2.4,2.4,2.4h96.6v-5.4c0-4.6-1.9-8.9-5.2-12.1c-1.1-1.1-2.4-2-3.8-2.8l-0.6-0.3l0.5-0.5
	c2.1-2.1,3.3-4.9,3.3-7.7c0-0.2,0-0.3,0-0.5l0-0.4l0.4-0.1c3.3-1.2,5.5-4.3,5.5-7.8V8.8c0-4.6-3.7-8.3-8.3-8.3H8.8
	c-4.6,0-8.3,3.7-8.3,8.3V97.1z M35.7,94.6H11.2v-0.5c0-6.7,5.5-12.2,12.2-12.2s12.2,5.5,12.2,12.2V94.6z M17.1,70.7
	c0-3.5,2.9-6.4,6.4-6.4s6.4,2.9,6.4,6.4s-2.9,6.4-6.4,6.4S17.1,74.2,17.1,70.7z M65,94.6H40.5v-0.5c0-6.7,5.5-12.2,12.2-12.2
	S65,87.4,65,94.1V94.6z M46.4,70.7c0-3.5,2.9-6.4,6.4-6.4c3.5,0,6.4,2.9,6.4,6.4s-2.9,6.4-6.4,6.4C49.2,77.1,46.4,74.2,46.4,70.7z
	 M67.4,85.3L67,84.7c-1.5-2.3-3.6-4.2-6-5.5l-0.6-0.3l0.4-0.5c2-2.1,3.1-4.8,3.1-7.7v-0.5h6.9v0.5c0,2.9,1.1,5.6,3.1,7.7l0.4,0.5
	l-0.6,0.3c-2.4,1.3-4.5,3.2-6,5.5L67.4,85.3z M94.6,94.1v0.5H69.8v-0.5c0-6.7,5.5-12.2,12.2-12.2C88.9,81.9,94.6,87.5,94.6,94.1z
	 M75.7,70.7c0-3.5,2.9-6.4,6.4-6.4c3.6,0,6.8,3,6.8,6.4s-3.2,6.4-6.8,6.4C78.5,77.1,75.7,74.2,75.7,70.7z M5.4,8.8
	c0-1.9,1.5-3.4,3.4-3.4h82.4c1.9,0,3.4,1.5,3.4,3.4v53.1c0,1.4-0.8,2.6-2.1,3.2l-0.4,0.2l-0.2-0.4c-2.1-3.3-5.9-5.4-9.9-5.4
	c-4,0-7.7,2.1-9.7,5.6l-0.1,0.2h-9.6l-0.1-0.2c-2-3.5-5.7-5.6-9.7-5.6c-2,0-3.9,0.5-5.6,1.5l-0.8,0.4v-8.8h15.1c3.8,0,7.1-2.6,8-6.3
	l5.9-23.4c1.1-4.4-1.6-8.9-6-10.1c-2.1-0.5-4.4-0.2-6.3,0.9c-1.9,1.1-3.3,3-3.8,5.1L55.1,36h-18l0.6-0.8c1.9-2.5,2.8-5.4,2.8-8.5
	c0-7.8-6.3-14.1-14.1-14.1S12.2,19,12.2,26.8c0,3.3,1.2,6.6,3.4,9.2l0.5,0.6l-0.8,0.2c-3.5,0.9-6.6,2.8-9.1,5.3l-0.9,0.9V8.8z
	 M35.7,26.8c0,5.1-4.2,9.3-9.3,9.3s-9.3-4.2-9.3-9.3s4.2-9.3,9.3-9.3S35.7,21.6,35.7,26.8z M5.4,56.1c0-8.4,6.8-15.1,15.1-15.1h36.4
	c1.1,0,2.1-0.8,2.4-1.8l4.7-19c0.2-0.9,0.8-1.6,1.6-2.1c0.8-0.5,1.7-0.6,2.6-0.4c1.8,0.5,3,2.3,2.5,4.2l-5.9,23.4
	c-0.4,1.5-1.8,2.6-3.3,2.6H43.9c-1.3,0-2.4,1.1-2.4,2.4l0,10.6c0,7.3,0,7.9,0.1,8.1l0,0.3c-0.5,3.4,0.6,6.8,3,9.3l0.4,0.5l-0.6,0.3
	c-2.4,1.3-4.5,3.2-6,5.5l-0.4,0.6l-0.4-0.6c-1.5-2.3-3.6-4.2-6-5.5l-0.6-0.3l0.4-0.5c2-2.1,3.1-4.8,3.1-7.7c0-6.2-5-11.2-11.2-11.2
	s-11.2,5-11.2,11.2c0,2.9,1.1,5.6,3.1,7.7l0.4,0.5l-0.6,0.3c-5.4,3-8.8,8.7-8.8,14.9h-1V56.1z"/>
</svg>
