<?xml version="1.0" encoding="UTF-8"?>
<!-- Generator: Adobe Illustrator 16.0.0, SVG Export Plug-In . SVG Version: 6.00 Build 0)  -->
<!DOCTYPE svg PUBLIC "-//W3C//DTD SVG 1.1//EN" "http://www.w3.org/Graphics/SVG/1.1/DTD/svg11.dtd">
<svg version="1.1" id="Capa_1" xmlns="http://www.w3.org/2000/svg" xmlns:xlink="http://www.w3.org/1999/xlink" x="0px" y="0px" width="400px" height="400px" viewBox="0 0 400 400" enable-background="new 0 0 400 400" xml:space="preserve">
<g>
	<path fill="#FFFFFF" d="M200,78c-26.835,0-48.667,21.832-48.667,48.667s21.832,48.667,48.667,48.667s48.666-21.832,48.666-48.667   S226.835,78,200,78z M200,158c-17.278,0-31.334-14.056-31.334-31.333c0-17.277,14.056-31.333,31.334-31.333   c17.277,0,31.333,14.056,31.333,31.333C231.333,143.944,217.278,158,200,158z"/>
	<path fill="#FFFFFF" d="M290.634,36.039C266.112,11.509,233.504-2,198.82-2c-34.682,0-67.289,13.507-91.813,38.033   C61.666,81.366,55.959,166.55,94.75,218.266l104.07,150.295l103.873-150.026C341.61,166.651,335.975,81.373,290.634,36.039z    M198.82,338.107l-90.006-129.974C74.701,162.659,79.584,87.965,119.261,48.288c21.257-21.251,49.511-32.955,79.559-32.955   c30.048,0,58.303,11.704,79.56,32.954c39.68,39.673,44.492,114.461,10.256,160.107L198.82,338.107z"/>
	<path fill="#FFFFFF" d="M367.571,306.914c-21.97-10.434-51.901-18.105-86.55-22.187c-4.807-0.581-9.077,2.881-9.627,7.594   c-0.269,2.3,0.373,4.567,1.806,6.383c1.435,1.818,3.49,2.968,5.787,3.235c73.768,8.685,105.68,31.614,105.68,41.395   c0,14.425-63.423,41.332-184.666,41.332c-121.244,0-184.667-26.907-184.667-41.332c0-9.78,31.912-32.71,105.678-41.395   c2.298-0.268,4.354-1.417,5.79-3.237c1.433-1.817,2.075-4.084,1.806-6.385c-0.518-4.365-4.197-7.656-8.56-7.656   c-0.357,0-0.719,0.022-1.061,0.065c-34.656,4.082-64.587,11.754-86.557,22.188C9.906,317.611-2,330.205-2,343.334   c0,15.648,18.523,30.138,52.158,40.799C87.033,395.822,138.847,402,200,402c61.152,0,112.967-6.178,149.842-17.867   C383.477,373.472,402,358.982,402,343.334C402,330.205,390.095,317.611,367.571,306.914z"/>
</g>
</svg>