<?xml version="1.0" encoding="utf-8"?>
<!-- Generator: Adobe Illustrator 16.0.0, SVG Export Plug-In . SVG Version: 6.00 Build 0)  -->
<!DOCTYPE svg PUBLIC "-//W3C//DTD SVG 1.1//EN" "http://www.w3.org/Graphics/SVG/1.1/DTD/svg11.dtd">
<svg version="1.1" id="Capa_1" xmlns="http://www.w3.org/2000/svg" xmlns:xlink="http://www.w3.org/1999/xlink" x="0px" y="0px"
	 width="100px" height="61.783px" viewBox="0 0 100 61.783" enable-background="new 0 0 100 61.783" xml:space="preserve">
<path d="M85.028,31.839c-1.698,0-3.328,0.288-4.851,0.811l-3.134-6.231c0.938-0.474,1.903-0.9,2.9-1.271
	c4.426-1.646,9.198-2.18,13.997-1.504c1.113,0.157,2.137-0.617,2.294-1.727c0.156-1.11-0.617-2.137-1.728-2.293
	c-5.465-0.769-10.922-0.162-15.979,1.72c-1.137,0.422-2.24,0.91-3.31,1.45L67.344,7.132c-0.001-0.001-0.002-0.002-0.002-0.004
	l-3.023-6.01C63.975,0.433,63.272,0,62.505,0H50.071c-1.121,0-2.03,0.909-2.03,2.03s0.909,2.03,2.03,2.03h11.183l1.689,3.359
	L48.888,18.142c-0.223,0.149-1.344,0.884-2.824,1.68c-0.996,0.506-2.196,1.035-3.506,1.443c-1.7,0.53-5.705,1.254-8.9,1.127
	c-0.027-0.001-0.053-0.001-0.08-0.001h-8.628c-0.098,0-0.192,0.015-0.287,0.029c-4.729-2.792-10.142-4.85-16.014-5.974c0,0,0,0,0,0
	c-0.979-0.188-1.808-0.327-2.606-0.439c-0.094-0.013-0.188-0.02-0.282-0.02H2.03c-1.095,0-1.992,0.868-2.029,1.961
	c-0.038,1.094,0.799,2.02,1.892,2.094l6.099,0.413c11.443,2.217,20.946,8.25,26.48,16.357l-6.492,2.601
	c-2.58-4.519-7.442-7.574-13.008-7.574C6.716,31.839,0,38.556,0,46.811s6.716,14.972,14.972,14.972
	c8.255,0,14.971-6.717,14.971-14.972c0-1.252-0.156-2.468-0.447-3.631l7.065-2.83c1.109,2.192,1.95,4.5,2.48,6.899
	c0.205,0.93,1.03,1.591,1.982,1.591h18.678c0.989,0,1.835-0.713,2.001-1.689C63,39.537,67.35,32.843,73.551,28.507l3.002,5.971
	c-3.92,2.703-6.496,7.222-6.496,12.333c0,8.255,6.716,14.972,14.972,14.972c8.255,0,14.972-6.717,14.972-14.972
	S93.283,31.839,85.028,31.839z M25.883,46.811c0,6.017-4.895,10.912-10.911,10.912c-6.017,0-10.912-4.895-10.912-10.912
	c0-6.017,4.895-10.912,10.912-10.912c3.856,0,7.244,2.017,9.185,5.045l-9.94,3.982c-1.041,0.417-1.546,1.599-1.129,2.64
	c0.318,0.793,1.08,1.275,1.885,1.275c0.251,0,0.507-0.047,0.754-0.146l9.95-3.985C25.81,45.391,25.883,46.092,25.883,46.811z
	 M58.035,44.781H42.612c-0.563-2.052-1.33-4.036-2.272-5.944l7.694-3.083c1.041-0.417,1.546-1.599,1.13-2.639
	c-0.417-1.041-1.599-1.547-2.639-1.13l-8.211,3.289c-2.113-3.261-4.779-6.232-7.905-8.823h3.126c0.52,0.021,0.959,0.043,1.346,0.064
	c0.659,0.034,1.196,0.059,1.713,0.059c1.276,0,2.432-0.149,4.999-0.671c2.157-0.438,4.461-1.479,6.276-2.443
	c2.016-1.02,3.32-1.968,3.404-2.03c0.002-0.001,0.002-0.003,0.004-0.004c0.008-0.006,0.017-0.012,0.024-0.018L64.799,11.11
	l6.91,13.739C64.842,29.47,59.883,36.594,58.035,44.781z M85.028,57.723c-6.017,0-10.911-4.895-10.911-10.912
	c0-3.524,1.687-6.655,4.287-8.651l4.811,9.563c0.356,0.709,1.072,1.119,1.814,1.119c0.307,0,0.619-0.07,0.91-0.217
	c1.002-0.503,1.406-1.725,0.902-2.726l-4.813-9.57c0.954-0.274,1.958-0.429,3-0.429c6.017,0,10.911,4.895,10.911,10.912
	C95.939,52.828,91.045,57.723,85.028,57.723z"/>
</svg>
