<?xml version="1.0" encoding="utf-8"?>
<!-- Generator: Adobe Illustrator 24.1.3, SVG Export Plug-In . SVG Version: 6.00 Build 0)  -->
<svg version="1.1" id="Capa_1" xmlns="http://www.w3.org/2000/svg" xmlns:xlink="http://www.w3.org/1999/xlink" x="0px" y="0px"
	 viewBox="0 0 100 93.6" style="enable-background:new 0 0 100 93.6;" xml:space="preserve">
<g>
	<path class="st0" d="M40.1,36.1c-4.4,0-8,3.6-8,8c0,4.4,3.6,8,8,8s8-3.6,8-8C48.1,39.7,44.5,36.1,40.1,36.1z M40.1,49.4
		c-2.9,0-5.3-2.4-5.3-5.3s2.4-5.3,5.3-5.3s5.3,2.4,5.3,5.3S43,49.4,40.1,49.4z"/>
	<path class="st0" d="M40.1,77.5c-20.6,0-37.4-16.8-37.4-37.4S19.5,2.7,40.1,2.7s37.4,16.8,37.4,37.4c0,1.6-0.1,3.2-0.3,4.7
		c0.9,0.1,1.8,0.3,2.6,0.5c0.2-1.7,0.3-3.4,0.3-5.2C80.2,18,62.2,0,40.1,0S0,18,0,40.1c0,22.1,18,40.1,40.1,40.1
		c4,0,7.9-0.6,11.6-1.7c-0.3-0.8-0.6-1.7-0.9-2.5C47.4,76.9,43.8,77.5,40.1,77.5z"/>
	<path class="st0" d="M49.9,67.8c-1.8,0.6-3.6,1.1-5.5,1.4C46,55.5,55.4,44,68.5,39.6l0.9-0.3c0,0.3,0,0.5,0,0.8
		c0,1.8-0.2,3.5-0.5,5.1c0.9-0.2,1.8-0.4,2.8-0.5c0.2-1.5,0.3-3.1,0.3-4.7C72.2,22.4,57.8,8,40.1,8C22.4,8,8,22.4,8,40.1
		c0,17.7,14.4,32.1,32.1,32.1c3.4,0,6.7-0.5,9.8-1.5c0-0.5-0.1-1-0.1-1.5C49.8,68.7,49.8,68.2,49.9,67.8z M40.1,10.7
		c12.5,0,23.2,7.8,27.4,18.8l-10,3.3c-3.4,1.1-7.1,1-10.5-0.5c-4.4-2-9.5-2-13.9,0l-0.5,0.2c-3,1.3-6.4,1.6-9.6,0.8l-10.7-2.9
		C16.3,19,27.2,10.7,40.1,10.7z M10.7,40.1c0-0.3,0-0.5,0-0.8l0.9,0.3C24.8,44,34.1,55.5,35.8,69.2C21.6,67.1,10.7,54.8,10.7,40.1z
		 M40.1,69.5c-0.5,0-1.1,0-1.6,0c-1.6-15-11.7-27.6-26-32.4l-1.6-0.5c0.1-1.2,0.4-2.3,0.6-3.5l10.8,2.9c1.4,0.4,2.9,0.6,4.4,0.6
		c2.4,0,4.8-0.5,7-1.5l0.5-0.2c3.7-1.7,8-1.7,11.8,0c3.9,1.7,8.3,2,12.4,0.6l10-3.3c0.4,1.4,0.7,2.9,0.9,4.5L67.7,37
		c-14.3,4.8-24.4,17.4-26,32.4C41.1,69.5,40.6,69.5,40.1,69.5z"/>
	<path class="st0" d="M49.9,67.8c0.9-0.3,1.8-0.7,2.6-1.1c1-9,7.4-16.4,15.9-18.8c0.2-0.9,0.5-1.8,0.6-2.7
		C58.5,47.6,50.5,56.7,49.9,67.8z"/>
	<path class="st0" d="M79.8,45.3c-0.1,0.8-0.2,1.7-0.4,2.5c9.6,2.3,16.8,11,16.8,21.3c0,12.1-9.9,22-22,22
		c-9.1,0-16.9-5.5-20.2-13.4c-0.8,0.3-1.6,0.6-2.4,0.8c3.7,8.9,12.4,15.1,22.6,15.1c13.5,0,24.5-11,24.5-24.5
		C98.7,57.5,90.6,47.8,79.8,45.3z"/>
	<path class="st0" d="M71.8,44.8c-0.1,0.9-0.3,1.7-0.5,2.6c1-0.1,2-0.2,3-0.2c0.8,0,1.7,0.1,2.5,0.1c0.2-0.8,0.3-1.6,0.4-2.5
		c-1-0.1-1.9-0.2-2.9-0.2C73.4,44.7,72.6,44.7,71.8,44.8z"/>
	<path class="st0" d="M52.3,69.7c-0.8,0.3-1.6,0.6-2.5,0.9c0.1,1.8,0.4,3.6,0.9,5.3c0.8-0.2,1.6-0.5,2.4-0.8"/>
	<path class="st0" d="M53.2,75.1c-0.8,0.3-1.6,0.6-2.4,0.8c0.3,0.9,0.5,1.7,0.9,2.5c0.8-0.2,1.6-0.5,2.4-0.8
		C53.7,76.8,53.4,76,53.2,75.1z"/>
	<path class="st0" d="M76.8,47.3c0.9,0.1,1.8,0.3,2.6,0.5c0.2-0.8,0.3-1.6,0.4-2.5c-0.9-0.2-1.7-0.4-2.6-0.5
		C77.1,45.7,77,46.5,76.8,47.3z"/>
	<path class="st0" d="M69,45.2c-0.2,0.9-0.4,1.8-0.6,2.7c0.9-0.3,1.9-0.5,2.9-0.6c0.2-0.8,0.4-1.7,0.5-2.6
		C70.9,44.9,69.9,45,69,45.2z"/>
	<path class="st0" d="M52.5,66.7c-0.8,0.4-1.7,0.7-2.6,1.1c0,0.4,0,0.9,0,1.3c0,0.5,0,1,0.1,1.5c0.8-0.3,1.7-0.6,2.5-0.9
		c0-0.2,0-0.4,0-0.6C52.3,68.3,52.4,67.5,52.5,66.7z"/>
</g>
<path class="st0" d="M63,70.5c-0.2-0.2-0.3-0.5-0.3-0.7c0-0.2,0.1-0.5,0.3-0.7l1.4-1.4c0.4-0.4,1-0.4,1.4,0l0.1,0.1l5.5,5.9
	c0.2,0.2,0.5,0.2,0.7,0l13.4-13.9h0.1l0,0c0.4-0.4,1-0.4,1.4,0l1.4,1.4c0.4,0.4,0.4,1,0,1.4l0,0l-16,16.6c-0.2,0.2-0.4,0.3-0.7,0.3
	c-0.3,0-0.5-0.1-0.7-0.3l-7.8-8.4C63.2,70.8,63,70.5,63,70.5z"/>
</svg>
