<?xml version="1.0" encoding="utf-8"?>
<!-- Generator: Adobe Illustrator 16.0.0, SVG Export Plug-In . SVG Version: 6.00 Build 0)  -->
<!DOCTYPE svg PUBLIC "-//W3C//DTD SVG 1.1//EN" "http://www.w3.org/Graphics/SVG/1.1/DTD/svg11.dtd">
<svg version="1.1" id="Capa_1" xmlns="http://www.w3.org/2000/svg" xmlns:xlink="http://www.w3.org/1999/xlink" x="0px" y="0px"
	 width="100px" height="66.627px" viewBox="0 0 100 66.627" enable-background="new 0 0 100 66.627" xml:space="preserve">
<path d="M100,48.037V28.049c0-1.101-0.893-1.994-1.993-1.994H89l-4.867-11.288c-0.314-0.731-1.034-1.205-1.83-1.205
	H63.594V1.993C63.594,0.893,62.701,0,61.6,0H1.993C0.893,0,0,0.893,0,1.993v46.044c0,1.101,0.893,1.993,1.993,1.993h7.098
	c-0.693,1.512-1.06,3.167-1.06,4.878c0,6.463,5.257,11.719,11.72,11.719c4.768,0,8.877-2.863,10.706-6.959h36.799
	c1.828,4.096,5.938,6.959,10.705,6.959c4.769,0,8.878-2.863,10.707-6.959h9.339c1.101,0,1.993-0.893,1.993-1.994
	c0-1.101-0.893-1.993-1.993-1.993h-8.354c0.017-0.255,0.028-0.513,0.028-0.772c0-1.711-0.367-3.366-1.06-4.878h9.385
	C99.107,50.03,100,49.138,100,48.037z M80.992,17.55l3.666,8.506H63.594V17.55H80.992z M3.987,3.987h55.621v24.063v17.994h-32.19
	c-0.021-0.018-0.045-0.034-0.067-0.052c-0.232-0.199-0.471-0.389-0.716-0.567c-0.037-0.027-0.075-0.053-0.112-0.08
	c-0.256-0.182-0.517-0.355-0.785-0.515c-0.02-0.012-0.04-0.022-0.059-0.034c-0.273-0.16-0.551-0.31-0.835-0.447
	c-0.017-0.008-0.034-0.018-0.051-0.026c-0.283-0.135-0.572-0.256-0.865-0.367c-0.04-0.016-0.079-0.031-0.119-0.046
	c-0.284-0.105-0.573-0.198-0.865-0.279c-0.049-0.014-0.098-0.028-0.147-0.041c-0.292-0.078-0.586-0.145-0.884-0.2
	c-0.049-0.009-0.097-0.017-0.146-0.025c-0.304-0.053-0.611-0.095-0.921-0.124c-0.036-0.003-0.072-0.005-0.107-0.008
	c-0.327-0.027-0.655-0.044-0.987-0.044c-0.331,0-0.66,0.017-0.986,0.044c-0.036,0.003-0.072,0.004-0.107,0.008
	c-0.31,0.028-0.617,0.071-0.921,0.124c-0.049,0.008-0.098,0.016-0.146,0.025c-0.298,0.055-0.592,0.123-0.884,0.2
	c-0.049,0.013-0.099,0.027-0.147,0.041c-0.292,0.082-0.581,0.174-0.865,0.279c-0.04,0.015-0.079,0.03-0.119,0.046
	c-0.293,0.111-0.583,0.232-0.865,0.367c-0.018,0.008-0.034,0.018-0.051,0.026c-0.284,0.137-0.563,0.287-0.835,0.447
	c-0.02,0.012-0.04,0.022-0.059,0.034c-0.269,0.16-0.529,0.333-0.785,0.515c-0.037,0.027-0.075,0.053-0.112,0.08
	c-0.245,0.178-0.483,0.368-0.716,0.567c-0.021,0.019-0.045,0.034-0.066,0.052H3.987V3.987z M19.75,62.641
	c-4.264,0-7.733-3.469-7.733-7.732c0-2.063,0.803-4.003,2.261-5.463c1.461-1.464,3.405-2.27,5.472-2.27s4.01,0.806,5.471,2.269
	c0,0,0,0,0.001,0.001c1.458,1.46,2.261,3.4,2.261,5.463C27.483,59.172,24.015,62.641,19.75,62.641z M31.442,55.681
	c0.017-0.255,0.028-0.513,0.028-0.772c0-1.711-0.367-3.366-1.06-4.878H61.6h5.701c-0.691,1.512-1.06,3.167-1.06,4.878
	c0,0.26,0.012,0.518,0.028,0.772H31.442z M77.961,62.641c-4.264,0-7.732-3.469-7.732-7.732c0-2.063,0.803-4.002,2.261-5.463
	c1.462-1.464,3.405-2.27,5.472-2.27c2.068,0,4.012,0.806,5.473,2.27c0,0,0,0,0.001,0c1.458,1.46,2.261,3.401,2.261,5.462
	C85.695,59.172,82.225,62.641,77.961,62.641z M96.014,46.043H85.628c-0.021-0.017-0.042-0.032-0.063-0.049
	c-0.233-0.201-0.474-0.392-0.722-0.572c-0.035-0.026-0.072-0.051-0.107-0.076c-0.257-0.183-0.519-0.356-0.787-0.517
	c-0.02-0.012-0.041-0.022-0.061-0.034c-0.271-0.161-0.55-0.31-0.834-0.447c-0.018-0.008-0.034-0.018-0.052-0.026
	c-0.282-0.135-0.571-0.255-0.863-0.367c-0.041-0.016-0.081-0.032-0.122-0.047c-0.283-0.104-0.57-0.196-0.862-0.278
	c-0.05-0.014-0.101-0.028-0.15-0.042c-0.29-0.077-0.584-0.145-0.881-0.199c-0.05-0.009-0.1-0.017-0.149-0.026
	c-0.303-0.052-0.609-0.095-0.919-0.123c-0.036-0.003-0.073-0.005-0.108-0.008c-0.326-0.027-0.655-0.043-0.986-0.043
	c-0.33,0-0.659,0.017-0.985,0.043c-0.036,0.003-0.072,0.005-0.108,0.008c-0.31,0.028-0.615,0.07-0.918,0.123
	c-0.051,0.009-0.101,0.017-0.15,0.026c-0.297,0.054-0.59,0.122-0.879,0.198c-0.052,0.014-0.103,0.028-0.153,0.043
	c-0.29,0.082-0.577,0.173-0.859,0.277c-0.042,0.015-0.083,0.032-0.126,0.048c-0.291,0.111-0.578,0.231-0.859,0.365
	c-0.02,0.009-0.037,0.02-0.057,0.029c-0.281,0.136-0.557,0.284-0.826,0.442c-0.021,0.013-0.044,0.024-0.064,0.037
	c-0.268,0.16-0.527,0.332-0.783,0.514c-0.037,0.027-0.076,0.053-0.113,0.081c-0.246,0.179-0.484,0.369-0.718,0.568
	c-0.021,0.018-0.044,0.033-0.065,0.051h-6.701V30.042h24.089c0.002,0,0.005,0,0.007,0s0.003,0,0.005,0h8.319V46.043z"/>
</svg>
