<?xml version="1.0" encoding="utf-8"?>
<!-- Generator: Adobe Illustrator 16.0.0, SVG Export Plug-In . SVG Version: 6.00 Build 0)  -->
<!DOCTYPE svg PUBLIC "-//W3C//DTD SVG 1.1//EN" "http://www.w3.org/Graphics/SVG/1.1/DTD/svg11.dtd">
<svg version="1.1" id="Capa_1" xmlns="http://www.w3.org/2000/svg" xmlns:xlink="http://www.w3.org/1999/xlink" x="0px" y="0px"
	 width="100px" height="99.938px" viewBox="0 0 100 99.938" enable-background="new 0 0 100 99.938" xml:space="preserve">
<g>
	<path d="M64.693,35.104c0.182-0.803-0.175-1.632-0.884-2.053c-0.708-0.419-1.607-0.334-2.226,0.211
		c-2.457,2.172-3.779,4.86-4.482,7.287c-1.689-4.012-3.252-9.626-1.635-14.435c0.318-0.948-0.154-1.981-1.08-2.361
		c-0.924-0.379-1.986,0.024-2.426,0.924c-0.73,1.497-2.327,2.792-4.175,4.291c-4.164,3.376-9.661,7.835-7.947,18.036
		c-2.593-3.186-2.624-7.478-2.624-7.716c0.006-0.771-0.454-1.468-1.165-1.766s-1.531-0.137-2.076,0.409
		c-0.21,0.21-5.144,5.257-5.144,15.103c0,11.165,9.083,20.249,20.248,20.249c11.164,0,20.247-9.084,20.247-20.249
		c0-4.873-1.691-7.589-3.05-9.772C64.815,40.914,63.76,39.218,64.693,35.104z M49.08,69.486c-9.072,0-16.452-7.381-16.452-16.453
		c0-3.682,0.784-6.531,1.66-8.567c1.018,3.2,3.224,7.016,8.007,8.815c0.688,0.258,1.463,0.098,1.99-0.414
		c0.527-0.512,0.712-1.281,0.475-1.976c-3.903-11.416,0.835-15.258,5.417-18.974c0.279-0.226,0.555-0.45,0.827-0.675
		c0.277,8.417,5.395,16.307,5.666,16.719c0.479,0.727,1.389,1.035,2.211,0.749c0.822-0.288,1.344-1.097,1.264-1.964
		c-0.004-0.042-0.23-2.792,0.813-5.808c0.479,1.73,1.314,3.071,2.098,4.329c1.273,2.046,2.477,3.979,2.477,7.766
		C65.531,62.105,58.15,69.486,49.08,69.486z"/>
	<path d="M97.9,44.929L55.07,2.1C53.717,0.746,51.916,0,50,0c-1.917,0-3.718,0.746-5.071,2.1L2.1,44.929
		C0.746,46.282,0,48.083,0,50c0,1.916,0.746,3.717,2.1,5.07l42.83,42.83c1.354,1.354,3.155,2.1,5.071,2.1s3.717-0.746,5.07-2.1
		L97.9,55.07c1.354-1.354,2.1-3.154,2.1-5.07C100,48.083,99.254,46.283,97.9,44.929z M94.32,51.491L51.492,94.32
		c-0.796,0.797-2.189,0.795-2.984,0.002L5.679,51.491C5.281,51.094,5.062,50.564,5.062,50c0-0.564,0.219-1.094,0.617-1.492
		L48.508,5.679C48.906,5.281,49.436,5.062,50,5.062c0.564,0,1.094,0.219,1.491,0.617L94.32,48.508
		c0.398,0.398,0.619,0.928,0.619,1.492C94.939,50.564,94.719,51.094,94.32,51.491z"/>
</g>
</svg>
