<?xml version="1.0" encoding="UTF-8"?>
<!-- Generator: Adobe Illustrator 16.0.0, SVG Export Plug-In . SVG Version: 6.00 Build 0)  -->
<!DOCTYPE svg PUBLIC "-//W3C//DTD SVG 1.1//EN" "http://www.w3.org/Graphics/SVG/1.1/DTD/svg11.dtd">
<svg version="1.1" id="Capa_1" xmlns="http://www.w3.org/2000/svg" xmlns:xlink="http://www.w3.org/1999/xlink" x="0px" y="0px" width="400px" height="400px" viewBox="0 0 400 400" enable-background="new 0 0 400 400" xml:space="preserve">
<g>
	<g>
		<path fill="#FFFFFF" d="M313.333,316.834H86.666c-3.68,0-6.666,2.979-6.666,6.666v48.061C80,387.247,92.76,400,108.44,400h183.12    c15.68,0,28.44-12.753,28.44-28.439V323.5C320,319.813,317.013,316.834,313.333,316.834z M306.666,371.561    c0,8.326-6.773,15.105-15.1,15.105H108.44c-8.333,0-15.106-6.779-15.106-15.105v-41.395h213.333V371.561z"/>
	</g>
</g>
<g>
	<g>
		<path fill="#FFFFFF" d="M291.567,0H108.44C92.76,0,80,12.753,80,28.44V60c0,3.687,2.986,6.667,6.666,6.667h226.666    c3.68,0,6.667-2.98,6.667-6.667V28.44C320,12.753,307.24,0,291.567,0z M306.666,53.333H93.333V28.44    c0-8.327,6.773-15.107,15.107-15.107h183.12c8.334,0,15.106,6.779,15.106,15.107L306.666,53.333L306.666,53.333z"/>
	</g>
</g>
<g>
	<g>
		<path fill="#FFFFFF" d="M233.333,26.667h-66.666c-3.68,0-6.666,2.979-6.666,6.667c0,3.687,2.986,6.666,6.666,6.666h66.666    c3.68,0,6.667-2.979,6.667-6.666C240,29.646,237.013,26.667,233.333,26.667z"/>
	</g>
</g>
<g>
	<g>
		<path fill="#FFFFFF" d="M313.333,53.333H86.666C82.987,53.333,80,56.313,80,60v263.5c0,3.687,2.986,6.666,6.666,6.666h226.666    c3.68,0,6.667-2.979,6.667-6.666V60C320,56.313,317.013,53.333,313.333,53.333z M306.666,316.834H93.333V66.667h213.334    L306.666,316.834L306.666,316.834z"/>
	</g>
</g>
<g>
	<g>
		<path fill="#FFFFFF" d="M353.073,151.474c-1.034-3.547-4.727-5.566-8.267-4.54c-3.533,1.026-5.566,4.727-4.54,8.26    c4.214,14.493,6.354,29.573,6.354,44.807c0,15.294-2.153,30.407-6.4,44.946c-1.026,3.534,1,7.234,4.534,8.267    c0.626,0.18,1.253,0.267,1.873,0.267c2.887,0,5.547-1.887,6.4-4.793c4.6-15.753,6.934-32.134,6.934-48.687    C359.96,183.506,357.64,167.173,353.073,151.474z"/>
	</g>
</g>
<g>
	<g>
		<path fill="#FFFFFF" d="M59.78,244.947C55.532,230.413,53.38,215.294,53.38,200c0-15.233,2.14-30.313,6.359-44.813    c1.027-3.533-1.007-7.233-4.539-8.26c-3.54-1.027-7.24,1-8.267,4.54c-4.566,15.7-6.887,32.027-6.887,48.527    c0,16.56,2.333,32.939,6.934,48.687c0.847,2.913,3.507,4.8,6.393,4.8c0.62,0,1.247-0.079,1.874-0.267    C58.786,252.18,60.814,248.479,59.78,244.947z"/>
	</g>
</g>
<g>
	<g>
		<path fill="#FFFFFF" d="M13.333,200c0-27.134,4.527-52.213,12.754-70.613c1.5-3.36-0.008-7.3-3.367-8.807    c-3.353-1.5-7.3,0.013-8.807,3.367C4.94,144.026,0,171.026,0,200s4.939,55.974,13.907,76.053C15.021,278.526,17.454,280,20,280    c0.913,0,1.833-0.18,2.72-0.58c3.36-1.5,4.867-5.446,3.367-8.807C17.861,252.213,13.333,227.134,13.333,200z"/>
	</g>
</g>
<g>
	<g>
		<path fill="#FFFFFF" d="M386.086,123.947c-1.5-3.353-5.446-4.866-8.807-3.366s-4.866,5.447-3.366,8.807    c8.227,18.4,12.753,43.479,12.753,70.613s-4.526,52.213-12.747,70.613c-1.5,3.36,0.007,7.3,3.366,8.807    c0.88,0.4,1.808,0.58,2.714,0.58c2.547,0,4.979-1.474,6.086-3.947C395.06,255.974,400,228.974,400,200    S395.06,144.026,386.086,123.947z"/>
	</g>
</g>
<circle fill="#FFFFFF" cx="200.5" cy="357" r="12"/>
</svg>