<?xml version="1.0" encoding="utf-8"?>
<!-- Generator: Adobe Illustrator 16.0.0, SVG Export Plug-In . SVG Version: 6.00 Build 0)  -->
<!DOCTYPE svg PUBLIC "-//W3C//DTD SVG 1.1//EN" "http://www.w3.org/Graphics/SVG/1.1/DTD/svg11.dtd">
<svg version="1.1" id="Capa_1" xmlns="http://www.w3.org/2000/svg" xmlns:xlink="http://www.w3.org/1999/xlink" x="0px" y="0px"
	 width="100px" height="47.482px" viewBox="0 0 100 47.482" enable-background="new 0 0 100 47.482" xml:space="preserve">
<path d="M89.521,9.352h-7.166V1.549C82.355,0.693,81.662,0,80.807,0H44.417h-6.479H1.549C0.693,0,0,0.693,0,1.549
	v37.63c0,0.855,0.693,1.549,1.549,1.549h10.433c0.48,3.498,3.479,6.203,7.106,6.203s6.626-2.706,7.106-6.203h11.745h6.479h2.853
	h0.437c0.299,3.773,3.459,6.754,7.309,6.754s7.009-2.981,7.309-6.754h18.38c0.3,3.773,3.46,6.754,7.309,6.754
	s7.009-2.981,7.309-6.754h3.13c0.855,0,1.549-0.693,1.549-1.549v-6.616V19.831C100,14.053,95.299,9.352,89.521,9.352z M89.521,12.45
	c4.069,0,7.381,3.311,7.381,7.381v11.183H82.355V12.45H89.521z M96.902,37.63h-1.998c-0.07-0.192-0.148-0.379-0.232-0.563
	c-0.025-0.054-0.054-0.106-0.08-0.16c-0.063-0.129-0.127-0.258-0.197-0.382c-0.038-0.066-0.078-0.13-0.117-0.194
	c-0.066-0.108-0.133-0.216-0.203-0.32c-0.045-0.066-0.093-0.131-0.141-0.196c-0.07-0.098-0.145-0.195-0.221-0.289
	c-0.051-0.063-0.103-0.125-0.156-0.188c-0.078-0.091-0.16-0.18-0.243-0.267c-0.056-0.058-0.11-0.116-0.169-0.172
	c-0.088-0.086-0.179-0.169-0.271-0.251c-0.057-0.051-0.113-0.103-0.172-0.151c-0.104-0.086-0.211-0.167-0.319-0.248
	c-0.052-0.039-0.103-0.08-0.155-0.117c-0.01-0.007-0.018-0.014-0.027-0.021h4.703V37.63z M83.648,34.245
	c-0.11,0.082-0.22,0.164-0.325,0.252c-0.059,0.049-0.114,0.1-0.171,0.15c-0.093,0.083-0.185,0.166-0.273,0.252
	c-0.057,0.056-0.113,0.115-0.168,0.173c-0.083,0.086-0.164,0.175-0.242,0.266c-0.055,0.062-0.106,0.125-0.158,0.188
	c-0.076,0.094-0.148,0.19-0.22,0.289c-0.048,0.065-0.095,0.129-0.14,0.196c-0.071,0.105-0.139,0.213-0.204,0.321
	c-0.038,0.064-0.079,0.127-0.116,0.193c-0.07,0.125-0.135,0.254-0.199,0.383c-0.025,0.053-0.054,0.105-0.078,0.159
	c-0.085,0.184-0.162,0.372-0.232,0.563H61.906c-0.068-0.192-0.146-0.379-0.23-0.563c-0.025-0.054-0.055-0.106-0.08-0.159
	c-0.063-0.13-0.128-0.258-0.198-0.383c-0.037-0.066-0.077-0.129-0.116-0.194c-0.066-0.108-0.133-0.215-0.204-0.32
	c-0.045-0.067-0.093-0.131-0.14-0.196c-0.071-0.099-0.145-0.195-0.221-0.289c-0.051-0.063-0.104-0.126-0.156-0.188
	c-0.079-0.091-0.16-0.18-0.243-0.266c-0.056-0.059-0.111-0.117-0.169-0.173c-0.088-0.086-0.18-0.169-0.272-0.252
	c-0.058-0.05-0.112-0.102-0.171-0.15c-0.105-0.088-0.215-0.17-0.325-0.252c-0.05-0.037-0.099-0.076-0.149-0.112
	c-0.01-0.007-0.018-0.014-0.027-0.021h21.604h3.02c-0.011,0.007-0.02,0.014-0.029,0.021C83.746,34.168,83.698,34.208,83.648,34.245z
	 M79.259,31.014H55.887c-0.283,0-0.564,0.013-0.844,0.036c-0.092,0.007-0.183,0.022-0.274,0.032c-0.186,0.02-0.371,0.04-0.554,0.07
	c-0.109,0.018-0.215,0.042-0.322,0.063c-0.164,0.032-0.328,0.064-0.488,0.104c-0.113,0.027-0.223,0.06-0.333,0.091
	c-0.153,0.043-0.307,0.088-0.458,0.138c-0.111,0.036-0.221,0.077-0.33,0.117c-0.146,0.054-0.293,0.11-0.436,0.17
	c-0.108,0.046-0.215,0.093-0.322,0.142c-0.141,0.065-0.28,0.133-0.418,0.204c-0.104,0.054-0.207,0.108-0.309,0.165
	c-0.137,0.076-0.27,0.157-0.403,0.238c-0.097,0.061-0.194,0.12-0.29,0.184c-0.133,0.089-0.263,0.183-0.392,0.277
	c-0.089,0.065-0.179,0.128-0.265,0.196c-0.134,0.104-0.263,0.216-0.392,0.327c-0.076,0.065-0.153,0.127-0.227,0.194
	c-0.147,0.134-0.288,0.276-0.428,0.419c-0.049,0.05-0.102,0.097-0.15,0.149c-0.186,0.198-0.364,0.403-0.535,0.615
	c-0.032,0.04-0.062,0.084-0.094,0.125c-0.134,0.173-0.266,0.349-0.39,0.53c-0.054,0.08-0.102,0.162-0.154,0.243
	c-0.096,0.149-0.191,0.299-0.28,0.453c-0.054,0.095-0.103,0.193-0.155,0.29c-0.078,0.147-0.154,0.293-0.226,0.444
	c-0.049,0.105-0.095,0.212-0.141,0.319c-0.041,0.095-0.086,0.187-0.125,0.283h-0.188V3.098h33.292V31.014z M3.098,3.098h33.293
	V37.63H25.953c-0.058-0.19-0.124-0.376-0.197-0.558c-0.013-0.032-0.028-0.062-0.042-0.094c-0.066-0.16-0.137-0.317-0.214-0.47
	c-0.032-0.063-0.067-0.124-0.101-0.186c-0.064-0.119-0.13-0.236-0.2-0.351c-0.042-0.068-0.086-0.133-0.129-0.199
	c-0.069-0.105-0.141-0.208-0.216-0.31c-0.049-0.065-0.098-0.129-0.148-0.193c-0.078-0.098-0.159-0.192-0.241-0.286
	c-0.053-0.059-0.105-0.119-0.159-0.176c-0.09-0.095-0.184-0.187-0.28-0.276c-0.052-0.049-0.103-0.1-0.157-0.148
	c-0.119-0.106-0.243-0.207-0.369-0.305c-0.034-0.026-0.065-0.055-0.1-0.081c-0.162-0.121-0.329-0.235-0.501-0.342
	c-0.048-0.03-0.099-0.056-0.147-0.085c-0.126-0.074-0.254-0.147-0.385-0.214c-0.067-0.034-0.137-0.065-0.206-0.098
	c-0.117-0.055-0.234-0.108-0.354-0.157c-0.076-0.031-0.153-0.059-0.229-0.087c-0.118-0.043-0.237-0.083-0.358-0.121
	c-0.079-0.025-0.159-0.048-0.24-0.07c-0.125-0.033-0.25-0.063-0.377-0.089c-0.079-0.017-0.158-0.035-0.238-0.049
	c-0.139-0.025-0.281-0.043-0.424-0.06c-0.069-0.008-0.137-0.02-0.207-0.025c-0.213-0.019-0.428-0.03-0.646-0.03
	s-0.433,0.011-0.646,0.03c-0.069,0.006-0.138,0.017-0.207,0.025c-0.143,0.017-0.285,0.035-0.424,0.06
	c-0.08,0.015-0.158,0.032-0.237,0.049c-0.127,0.027-0.254,0.057-0.378,0.09c-0.08,0.022-0.159,0.045-0.238,0.069
	c-0.122,0.038-0.242,0.078-0.36,0.122c-0.076,0.028-0.152,0.057-0.227,0.087c-0.122,0.049-0.24,0.103-0.358,0.158
	c-0.068,0.032-0.136,0.063-0.203,0.097c-0.133,0.068-0.263,0.142-0.391,0.218c-0.047,0.028-0.095,0.052-0.141,0.081
	c-0.173,0.108-0.341,0.223-0.503,0.344c-0.031,0.022-0.06,0.049-0.09,0.073c-0.13,0.1-0.257,0.203-0.379,0.313
	c-0.052,0.046-0.102,0.097-0.153,0.145c-0.096,0.091-0.191,0.183-0.283,0.28c-0.054,0.057-0.105,0.115-0.157,0.173
	c-0.083,0.095-0.165,0.19-0.244,0.29c-0.05,0.063-0.099,0.125-0.146,0.189c-0.076,0.102-0.148,0.207-0.219,0.313
	c-0.043,0.065-0.086,0.129-0.127,0.196c-0.071,0.115-0.137,0.233-0.201,0.353c-0.034,0.061-0.069,0.121-0.1,0.184
	c-0.078,0.155-0.149,0.313-0.216,0.474c-0.013,0.03-0.028,0.06-0.04,0.09c-0.073,0.182-0.139,0.369-0.197,0.559H3.098V3.098z
	 M19.088,43.833c-2.251,0-4.083-1.832-4.083-4.083c0-0.138,0.007-0.277,0.021-0.415l0,0c0.211-2.091,1.958-3.668,4.063-3.668
	c2.106,0,3.852,1.576,4.062,3.667c0,0.001,0,0.001,0,0.002c0,0.001,0,0.003,0,0.004c0.014,0.131,0.021,0.269,0.021,0.41
	C23.171,42.002,21.339,43.833,19.088,43.833z M39.488,3.098h3.381V37.63h-3.381V3.098z M55.016,44.385
	c-2.338,0-4.241-1.903-4.241-4.241c0-0.216,0.021-0.447,0.065-0.706c0,0,0,0,0-0.001s0-0.001,0-0.001
	c0.344-2.047,2.101-3.533,4.175-3.533s3.831,1.486,4.176,3.533l0,0c0.043,0.26,0.064,0.492,0.064,0.708
	C59.256,42.482,57.354,44.385,55.016,44.385z M88.013,44.385c-2.339,0-4.241-1.903-4.241-4.241c0-0.216,0.021-0.448,0.066-0.708l0,0
	c0.344-2.047,2.1-3.533,4.175-3.533s3.831,1.486,4.175,3.533c0,0,0,0.001,0,0.001s0,0,0,0.001c0.045,0.258,0.066,0.489,0.066,0.706
	C92.254,42.482,90.352,44.385,88.013,44.385z"/>
</svg>
