<?xml version="1.0" encoding="utf-8"?>
<!-- Generator: Adobe Illustrator 16.0.0, SVG Export Plug-In . SVG Version: 6.00 Build 0)  -->
<!DOCTYPE svg PUBLIC "-//W3C//DTD SVG 1.1//EN" "http://www.w3.org/Graphics/SVG/1.1/DTD/svg11.dtd">
<svg version="1.1" id="Capa_1" xmlns="http://www.w3.org/2000/svg" xmlns:xlink="http://www.w3.org/1999/xlink" x="0px" y="0px"
	 width="100px" height="76.498px" viewBox="0 0 100 76.498" enable-background="new 0 0 100 76.498" xml:space="preserve">
<path d="M97.928,39.311h-7.275l-7.336-13.966c-0.357-0.682-1.064-1.109-1.834-1.109h-16.75
	c-1.145,0-2.072,0.928-2.072,2.073v15.075v13.003H51.034l9.833-16.388V20.413L26.708,0L7.611,23.893l1.999,1.598v2.258
	c-2.157,0.364-3.807,2.24-3.807,4.5c0,2.519,2.049,4.568,4.568,4.568c2.519,0,4.568-2.049,4.568-4.568
	c0-2.152-1.497-3.956-3.502-4.438v-2.066l16.25-20.33l29.034,17.351v14.086L46.2,54.387h-1.189l7.94-12.639H0l11.748,16.813
	l0.185-0.006c0.052,0.09,0.104,0.18,0.171,0.264l6.091,7.615c0.02,0.025,0.046,0.043,0.067,0.066c0.063,0.07,0.129,0.137,0.2,0.197
	c0.043,0.037,0.085,0.076,0.131,0.109c0.075,0.055,0.155,0.102,0.238,0.145c0.045,0.025,0.089,0.053,0.136,0.074
	c0.098,0.045,0.201,0.076,0.306,0.105c0.035,0.01,0.068,0.023,0.104,0.031c0.141,0.031,0.287,0.049,0.437,0.049h4.401
	c0.614,5.221,5.061,9.287,10.445,9.287s9.831-4.066,10.445-9.287h26.123c0.614,5.221,5.061,9.287,10.445,9.287
	c5.384,0,9.83-4.066,10.444-9.287h4.937c1.145,0,2.072-0.928,2.072-2.072s-0.928-2.072-2.072-2.072h-5.276
	c-0.5-1.736-1.429-3.293-2.675-4.535h8.826c1.145,0,2.072-0.928,2.072-2.072V41.384C100,40.239,99.072,39.311,97.928,39.311z
	 M13.113,32.248c0,1.511-1.229,2.74-2.741,2.74c-1.512,0-2.741-1.229-2.741-2.74c0-1.512,1.229-2.742,2.741-2.742
	C11.883,29.506,13.113,30.736,13.113,32.248z M66.805,28.381h13.425l5.741,10.93H66.805V28.381z M64.732,58.531h9.508
	c-1.245,1.242-2.174,2.799-2.674,4.535H44.765c-0.5-1.736-1.429-3.293-2.675-4.535h6.435l0.016,0.01l0.006-0.01H64.732z
	 M24.554,63.066h-3.745l-3.627-4.535h10.047C25.983,59.773,25.054,61.33,24.554,63.066z M45.452,45.893l-4.876,7.762l-26.707,0.703
	l-5.915-8.465H45.452z M34.659,72.354c-3.517,0-6.378-2.861-6.378-6.379c0-3.516,2.861-6.377,6.378-6.377s6.378,2.861,6.378,6.377
	C41.038,69.492,38.176,72.354,34.659,72.354z M81.672,72.354c-3.518,0-6.379-2.861-6.379-6.379c0-3.516,2.861-6.377,6.379-6.377
	c3.517,0,6.378,2.861,6.378,6.377C88.05,69.492,85.188,72.354,81.672,72.354z M95.855,54.387h-7.674H66.805V43.456h21.377H89.4
	h6.455V54.387z"/>
</svg>
