<?xml version="1.0" encoding="utf-8"?>
<!-- Generator: Adobe Illustrator 24.1.3, SVG Export Plug-In . SVG Version: 6.00 Build 0)  -->
<svg version="1.1" id="Capa_1" xmlns="http://www.w3.org/2000/svg" xmlns:xlink="http://www.w3.org/1999/xlink" x="0px" y="0px"
	 viewBox="0 0 100 66.6" style="enable-background:new 0 0 100 66.6;" xml:space="preserve">
<g>
	<path class="st0" d="M48.2,17.9v8.8h14.2c0.6,0,1.1,0.4,1.4,0.9l3.7,8.5h1.7V22.4V4H26.5v12.4h20.1C47.5,16.3,48.2,17,48.2,17.9z"
		/>
	<path class="st0" d="M26.5,19.4v16.8h6.2c0,0,0,0,0.1,0c0.2-0.2,0.4-0.3,0.5-0.4c0,0,0.1,0,0.1-0.1c0.2-0.1,0.4-0.3,0.6-0.4
		c0,0,0,0,0,0c0.2-0.1,0.4-0.2,0.6-0.3c0,0,0,0,0,0c0.2-0.1,0.4-0.2,0.7-0.3c0,0,0.1,0,0.1,0c0.2-0.1,0.4-0.2,0.7-0.2
		c0,0,0.1,0,0.1,0c0.2-0.1,0.4-0.1,0.7-0.2c0,0,0.1,0,0.1,0c0.2,0,0.5-0.1,0.7-0.1c0,0,0.1,0,0.1,0c0.2,0,0.5,0,0.8,0
		c0.3,0,0.5,0,0.8,0c0,0,0.1,0,0.1,0c0.2,0,0.5,0.1,0.7,0.1c0,0,0.1,0,0.1,0c0.2,0,0.5,0.1,0.7,0.2c0,0,0.1,0,0.1,0
		c0.2,0.1,0.4,0.1,0.7,0.2c0,0,0.1,0,0.1,0c0.2,0.1,0.4,0.2,0.7,0.3c0,0,0,0,0,0c0.2,0.1,0.4,0.2,0.6,0.3c0,0,0,0,0,0
		c0.2,0.1,0.4,0.3,0.6,0.4c0,0,0.1,0,0.1,0.1c0.2,0.1,0.4,0.3,0.5,0.4c0,0,0,0,0.1,0h0.7V19.4H26.5z"/>
	<polygon class="st0" points="72.7,39.2 70.6,39.2 48.2,39.2 48.2,43.5 72.7,43.5 	"/>
	<path class="st0" d="M19.1,53.8c-1.1-1.1-2.6-1.7-4.1-1.7c-1.6,0-3,0.6-4.1,1.7c-1.1,1.1-1.7,2.6-1.7,4.1c0,3.2,2.6,5.9,5.9,5.9
		c3.2,0,5.9-2.6,5.9-5.9C20.8,56.4,20.2,54.9,19.1,53.8C19.1,53.8,19.1,53.8,19.1,53.8z"/>
	<path class="st0" d="M53.2,51.2C53.3,51.2,53.3,51.2,53.2,51.2c0.2-0.2,0.4-0.3,0.6-0.5c0,0,0.1,0,0.1-0.1c0.2-0.1,0.4-0.3,0.6-0.4
		c0,0,0,0,0,0c0.2-0.1,0.4-0.2,0.6-0.3c0,0,0,0,0,0c0.2-0.1,0.4-0.2,0.7-0.3c0,0,0.1,0,0.1,0c0.2-0.1,0.4-0.1,0.7-0.2
		c0,0,0.1,0,0.1,0c0.2-0.1,0.4-0.1,0.7-0.1c0,0,0.1,0,0.1,0c0.2,0,0.5-0.1,0.7-0.1c0,0,0.1,0,0.1,0c0.2,0,0.5,0,0.7,0
		c0.3,0,0.5,0,0.7,0c0,0,0.1,0,0.1,0c0.2,0,0.5,0.1,0.7,0.1c0,0,0.1,0,0.1,0c0.2,0,0.4,0.1,0.7,0.2c0,0,0.1,0,0.1,0
		c0.2,0.1,0.4,0.1,0.7,0.2c0,0,0.1,0,0.1,0c0.2,0.1,0.4,0.2,0.7,0.3c0,0,0,0,0,0c0.2,0.1,0.4,0.2,0.6,0.3c0,0,0,0,0,0
		c0.2,0.1,0.4,0.3,0.6,0.4c0,0,0.1,0,0.1,0.1c0.2,0.1,0.4,0.3,0.5,0.4c0,0,0,0,0,0h7.9h0v-4.7H48.2v4.7H53.2z"/>
	<path class="st0" d="M29.6,42.9c0-1.3,0.3-2.6,0.8-3.7H25c-0.8,0-1.5-0.7-1.5-1.5V19.4H3v31.9h6.1c0,0,0,0,0,0
		c0.2-0.2,0.4-0.3,0.5-0.4c0,0,0.1,0,0.1-0.1c0.2-0.1,0.4-0.3,0.6-0.4c0,0,0,0,0,0c0.2-0.1,0.4-0.2,0.6-0.3c0,0,0,0,0,0
		c0.2-0.1,0.4-0.2,0.7-0.3c0,0,0.1,0,0.1,0c0.2-0.1,0.4-0.1,0.7-0.2c0,0,0.1,0,0.1,0c0.2-0.1,0.4-0.1,0.7-0.2c0,0,0.1,0,0.1,0
		c0.2,0,0.5-0.1,0.7-0.1c0,0,0.1,0,0.1,0c0.2,0,0.5,0,0.7,0c0.3,0,0.5,0,0.7,0c0,0,0.1,0,0.1,0c0.2,0,0.5,0.1,0.7,0.1
		c0,0,0.1,0,0.1,0c0.2,0,0.4,0.1,0.7,0.2c0,0,0.1,0,0.1,0c0.2,0.1,0.4,0.1,0.7,0.2c0,0,0.1,0,0.1,0c0.2,0.1,0.4,0.2,0.7,0.3
		c0,0,0,0,0,0c0.2,0.1,0.4,0.2,0.6,0.3c0,0,0,0,0,0c0.2,0.1,0.4,0.3,0.6,0.4c0,0,0.1,0,0.1,0.1c0.2,0.1,0.4,0.3,0.5,0.4
		c0,0,0,0,0.1,0h14.5C32,49.9,29.6,46.7,29.6,42.9z"/>
	<path class="st0" d="M41.9,51.2h3.3V49C44.2,50,43.1,50.7,41.9,51.2z"/>
	<path class="st0" d="M42.8,38.7c-1.1-1.1-2.6-1.7-4.2-1.7s-3.1,0.6-4.2,1.7c-1.1,1.1-1.7,2.6-1.7,4.2c0,3.3,2.7,5.9,5.9,5.9
		c3.3,0,5.9-2.7,5.9-5.9C44.5,41.3,43.9,39.9,42.8,38.7C42.8,38.7,42.8,38.7,42.8,38.7z"/>
	<polygon class="st0" points="61.3,29.6 48.2,29.6 48.2,36.1 64.1,36.1 	"/>
	<path class="st0" d="M87.3,38.7c-1.1-1.1-2.6-1.7-4.2-1.7c-1.6,0-3.1,0.6-4.2,1.7c-1.1,1.1-1.7,2.6-1.7,4.2c0,3.3,2.7,5.9,5.9,5.9
		c3.3,0,5.9-2.7,5.9-5.9C89,41.3,88.4,39.9,87.3,38.7C87.3,38.7,87.3,38.7,87.3,38.7z"/>
	<path class="st0" d="M74.6,36.1h2.7c0,0,0,0,0,0c0.2-0.2,0.4-0.3,0.5-0.4c0,0,0.1,0,0.1-0.1c0.2-0.1,0.4-0.3,0.6-0.4c0,0,0,0,0,0
		c0.2-0.1,0.4-0.2,0.6-0.3c0,0,0,0,0,0c0.2-0.1,0.4-0.2,0.7-0.3c0,0,0.1,0,0.1,0c0.2-0.1,0.4-0.1,0.7-0.2c0,0,0.1,0,0.1,0
		c0.2-0.1,0.4-0.1,0.7-0.2c0,0,0.1,0,0.1,0c0.2,0,0.5-0.1,0.7-0.1c0,0,0.1,0,0.1,0c0.2,0,0.5,0,0.8,0c0.3,0,0.5,0,0.8,0
		c0,0,0.1,0,0.1,0c0.2,0,0.5,0.1,0.7,0.1c0,0,0.1,0,0.1,0c0.2,0,0.5,0.1,0.7,0.2c0,0,0.1,0,0.1,0c0.2,0.1,0.4,0.1,0.7,0.2
		c0,0,0.1,0,0.1,0c0.2,0.1,0.4,0.2,0.7,0.3c0,0,0,0,0,0c0.2,0.1,0.4,0.2,0.6,0.3c0,0,0,0,0,0c0.2,0.1,0.4,0.3,0.6,0.4
		c0,0,0.1,0,0.1,0.1c0.2,0.1,0.4,0.3,0.6,0.4c0,0,0,0,0,0h7.9h0V23.9h-6.4c0,0,0,0,0,0s0,0,0,0H72.1v12.2h2.1
		C74.4,36.1,74.5,36.1,74.6,36.1z"/>
	<polygon class="st0" points="72.1,14.4 72.1,20.9 88.2,20.9 85.4,14.4 	"/>
	<path class="st0" d="M23,54.2c0.5,1.1,0.8,2.4,0.8,3.7c0,0.2,0,0.4,0,0.6h26.4c0-0.2,0-0.4,0-0.6c0-1.3,0.3-2.5,0.8-3.7h-4.3H23z"
		/>
	<path class="st0" d="M63.2,53.8c-1.1-1.1-2.6-1.7-4.1-1.7c-1.6,0-3,0.6-4.1,1.7c-1.1,1.1-1.7,2.6-1.7,4.1c0,3.2,2.6,5.9,5.9,5.9
		c3.2,0,5.9-2.6,5.9-5.9C64.9,56.4,64.3,54.9,63.2,53.8C63.2,53.8,63.2,53.8,63.2,53.8z"/>
	<polygon class="st1" points="72.7,39.2 72.7,39.1 66.4,39.1 66.4,39.1 66.4,39.1 48.2,39.1 48.2,39.2 70.6,39.2 	"/>
	<path class="st1" d="M99.9,37.7V22.4c0-0.8-0.7-1.5-1.5-1.5h-6.9l-3.7-8.6c-0.2-0.6-0.8-0.9-1.4-0.9H72.1V2.5
		c0-0.8-0.7-1.5-1.5-1.5H25c-0.8,0-1.5,0.7-1.5,1.5v13.9h3V4h42.5v18.4v13.7h3.1V23.9h18.4c0,0,0,0,0,0s0,0,0,0h6.4v12.2h0H89
		c0,0,0,0,0,0c-0.2-0.2-0.4-0.3-0.6-0.4c0,0-0.1,0-0.1-0.1c-0.2-0.1-0.4-0.3-0.6-0.4c0,0,0,0,0,0c-0.2-0.1-0.4-0.2-0.6-0.3
		c0,0,0,0,0,0c-0.2-0.1-0.4-0.2-0.7-0.3c0,0-0.1,0-0.1,0c-0.2-0.1-0.4-0.1-0.7-0.2c0,0-0.1,0-0.1,0c-0.2-0.1-0.4-0.1-0.7-0.2
		c0,0-0.1,0-0.1,0c-0.2,0-0.5-0.1-0.7-0.1c0,0-0.1,0-0.1,0c-0.2,0-0.5,0-0.8,0c-0.3,0-0.5,0-0.8,0c0,0-0.1,0-0.1,0
		c-0.2,0-0.5,0.1-0.7,0.1c0,0-0.1,0-0.1,0c-0.2,0-0.5,0.1-0.7,0.2c0,0-0.1,0-0.1,0c-0.2,0.1-0.4,0.1-0.7,0.2c0,0-0.1,0-0.1,0
		c-0.2,0.1-0.4,0.2-0.7,0.3c0,0,0,0,0,0c-0.2,0.1-0.4,0.2-0.6,0.3c0,0,0,0,0,0c-0.2,0.1-0.4,0.3-0.6,0.4c0,0-0.1,0-0.1,0.1
		c-0.2,0.1-0.4,0.3-0.5,0.4c0,0,0,0,0,0h-2.7c0.7,0.2,1.1,0.8,1.1,1.5V48c1.6,2.3,4.3,3.9,7.4,3.9c3.6,0,6.8-2.2,8.2-5.3h7.1
		c0.8,0,1.5-0.7,1.5-1.5s-0.7-1.5-1.5-1.5H92c0-0.2,0-0.4,0-0.6c0-1.3-0.3-2.6-0.8-3.7h7.2C99.3,39.2,99.9,38.5,99.9,37.7z
		 M72.1,20.9v-6.5h13.3l2.8,6.5H72.1z M83.1,48.8c-3.3,0-5.9-2.7-5.9-5.9c0-1.6,0.6-3.1,1.7-4.2c1.1-1.1,2.6-1.7,4.2-1.7
		c1.6,0,3.1,0.6,4.2,1.7c0,0,0,0,0,0c1.1,1.1,1.7,2.6,1.7,4.2C89,46.2,86.4,48.8,83.1,48.8z"/>
	<path class="st1" d="M74.2,43.5c0-0.2,0-0.4,0-0.6c0-1.3,0.3-2.6,0.8-3.7h-2.2v4.3H74.2z"/>
	<path class="st1" d="M46.7,39.2c0.5,1.2,0.8,2.4,0.8,3.7c0,0.2,0,0.4,0,0.6h0.6v-4.3H46.7z"/>
	<path class="st1" d="M74.6,36.1c-0.1,0-0.2,0-0.4,0h-2.1v0H74.6z"/>
	<path class="st1" d="M72.7,46.5v4.7h0h-7.9c0,0,0,0,0,0c-0.2-0.2-0.4-0.3-0.5-0.4c0,0-0.1,0-0.1-0.1c-0.2-0.1-0.4-0.3-0.6-0.4
		c0,0,0,0,0,0c-0.2-0.1-0.4-0.2-0.6-0.3c0,0,0,0,0,0c-0.2-0.1-0.4-0.2-0.7-0.3c0,0-0.1,0-0.1,0c-0.2-0.1-0.4-0.1-0.7-0.2
		c0,0-0.1,0-0.1,0c-0.2-0.1-0.4-0.1-0.7-0.2c0,0-0.1,0-0.1,0c-0.2,0-0.5-0.1-0.7-0.1c0,0-0.1,0-0.1,0c-0.2,0-0.5,0-0.7,0
		c-0.2,0-0.5,0-0.7,0c0,0-0.1,0-0.1,0c-0.2,0-0.5,0.1-0.7,0.1c0,0-0.1,0-0.1,0c-0.2,0-0.4,0.1-0.7,0.1c0,0-0.1,0-0.1,0
		c-0.2,0.1-0.4,0.1-0.7,0.2c0,0-0.1,0-0.1,0c-0.2,0.1-0.4,0.2-0.7,0.3c0,0,0,0,0,0c-0.2,0.1-0.4,0.2-0.6,0.3c0,0,0,0,0,0
		c-0.2,0.1-0.4,0.3-0.6,0.4c0,0-0.1,0-0.1,0.1c-0.2,0.1-0.4,0.3-0.5,0.4c0,0,0,0,0,0h-5.1v-4.7h-1.4c-0.4,0.9-1,1.7-1.6,2.4v2.2
		h-3.3c-1,0.4-2.1,0.6-3.3,0.6c-1.2,0-2.3-0.2-3.3-0.6H20.8c0,0,0,0-0.1,0c-0.2-0.2-0.4-0.3-0.5-0.4c0,0-0.1,0-0.1-0.1
		c-0.2-0.1-0.4-0.3-0.6-0.4c0,0,0,0,0,0c-0.2-0.1-0.4-0.2-0.6-0.3c0,0,0,0,0,0c-0.2-0.1-0.4-0.2-0.7-0.3c0,0-0.1,0-0.1,0
		c-0.2-0.1-0.4-0.1-0.7-0.2c0,0-0.1,0-0.1,0c-0.2-0.1-0.4-0.1-0.7-0.2c0,0-0.1,0-0.1,0c-0.2,0-0.5-0.1-0.7-0.1c0,0-0.1,0-0.1,0
		c-0.2,0-0.5,0-0.7,0c-0.3,0-0.5,0-0.7,0c0,0-0.1,0-0.1,0c-0.2,0-0.5,0.1-0.7,0.1c0,0-0.1,0-0.1,0c-0.2,0-0.4,0.1-0.7,0.2
		c0,0-0.1,0-0.1,0c-0.2,0.1-0.4,0.1-0.7,0.2c0,0-0.1,0-0.1,0c-0.2,0.1-0.4,0.2-0.7,0.3c0,0,0,0,0,0c-0.2,0.1-0.4,0.2-0.6,0.3
		c0,0,0,0,0,0c-0.2,0.1-0.4,0.3-0.6,0.4c0,0-0.1,0-0.1,0.1c-0.2,0.1-0.4,0.3-0.5,0.4c0,0,0,0,0,0H3V19.4h20.5v-3h-22
		C0.7,16.3,0,17,0,17.9v34.9c0,0.8,0.7,1.5,1.5,1.5h5.4c-0.5,1.1-0.8,2.4-0.8,3.7c0,4.9,4,8.9,8.9,8.9c3.6,0,6.7-2.2,8.1-5.3h27.9
		c1.4,3.1,4.5,5.3,8.1,5.3c3.6,0,6.7-2.2,8.1-5.3h7.1c0.8,0,1.5-0.7,1.5-1.5c0-0.8-0.7-1.5-1.5-1.5h-6.3c0-0.2,0-0.4,0-0.6
		c0-1.3-0.3-2.5-0.8-3.7h7.1c0.8,0,1.5-0.7,1.5-1.5V48c-0.3-0.5-0.6-0.9-0.8-1.4H72.7z M15,63.8c-3.2,0-5.9-2.6-5.9-5.9
		c0-1.6,0.6-3,1.7-4.1c1.1-1.1,2.6-1.7,4.1-1.7c1.6,0,3,0.6,4.1,1.7c0,0,0,0,0,0c1.1,1.1,1.7,2.6,1.7,4.1
		C20.8,61.2,18.2,63.8,15,63.8z M50.2,57.9c0,0.2,0,0.4,0,0.6H23.8c0-0.2,0-0.4,0-0.6c0-1.3-0.3-2.5-0.8-3.7h23.6H51
		C50.5,55.4,50.2,56.6,50.2,57.9z M59,63.8c-3.2,0-5.9-2.6-5.9-5.9c0-1.6,0.6-3,1.7-4.1c1.1-1.1,2.6-1.7,4.1-1.7
		c1.6,0,3,0.6,4.1,1.7c0,0,0,0,0,0c1.1,1.1,1.7,2.6,1.7,4.1C64.9,61.2,62.3,63.8,59,63.8z"/>
	<path class="st1" d="M45.1,19.4v16.8h23.9v0h-1.7l-3.7-8.5c-0.2-0.6-0.8-0.9-1.4-0.9H48.2v-8.8c0-0.8-0.7-1.5-1.5-1.5H26.5v3H45.1z
		 M48.2,29.6h13.2l2.8,6.4h-16V29.6z"/>
	<path class="st1" d="M74.6,36.1h-2.5v0h-3.1v0H45.1v1.5V49c0.7-0.7,1.2-1.5,1.6-2.4h1.4v-3h-0.6c0-0.2,0-0.4,0-0.6
		c0-1.3-0.3-2.6-0.8-3.7h1.4v-0.1h18.2c0,0,0,0,0,0c0,0,0,0,0,0h6.3v0.1H75c-0.5,1.2-0.8,2.4-0.8,3.7c0,0.2,0,0.4,0,0.6h-1.4v3h2.2
		c0.2,0.5,0.5,1,0.8,1.4V37.6C75.7,36.9,75.2,36.3,74.6,36.1z"/>
	<path class="st1" d="M38.6,51.9c1.2,0,2.3-0.2,3.3-0.6h-6.6C36.3,51.6,37.4,51.9,38.6,51.9z"/>
	<rect x="23.5" y="16.3" class="st1" width="3" height="3"/>
</g>
</svg>
