<?xml version="1.0" encoding="UTF-8"?>
<!-- Generator: Adobe Illustrator 16.0.0, SVG Export Plug-In . SVG Version: 6.00 Build 0)  -->
<!DOCTYPE svg PUBLIC "-//W3C//DTD SVG 1.1//EN" "http://www.w3.org/Graphics/SVG/1.1/DTD/svg11.dtd">
<svg version="1.1" id="Capa_1" xmlns="http://www.w3.org/2000/svg" xmlns:xlink="http://www.w3.org/1999/xlink" x="0px" y="0px" width="400px" height="400px" viewBox="0 0 400 400" enable-background="new 0 0 400 400" xml:space="preserve">
<path fill="#FFFFFF" d="M398,92.012c0-6.421-5.224-11.645-11.645-11.645H13.645C7.224,80.368,2,85.591,2,92.012V307.99  c0,6.42,5.224,11.643,11.645,11.643h372.711c6.421,0,11.645-5.223,11.645-11.643V92.012z M356.048,99.83L200,203.547L43.951,99.83  H356.048z M21.462,108.252l117.407,78.035L21.462,288.488V108.252z M37.683,300.17l117.995-102.714l37.875,25.175  c3.841,2.555,9.035,2.559,12.894-0.002l37.874-25.173L362.317,300.17H37.683z M378.537,288.488L261.13,186.284l117.407-78.035  V288.488z"/>
</svg>