<?xml version="1.0" encoding="utf-8"?>
<!-- Generator: Adobe Illustrator 16.0.0, SVG Export Plug-In . SVG Version: 6.00 Build 0)  -->
<!DOCTYPE svg PUBLIC "-//W3C//DTD SVG 1.1//EN" "http://www.w3.org/Graphics/SVG/1.1/DTD/svg11.dtd">
<svg version="1.1" id="Capa_1" xmlns="http://www.w3.org/2000/svg" xmlns:xlink="http://www.w3.org/1999/xlink" x="0px" y="0px"
	 width="100px" height="101.294px" viewBox="0 0 100 101.294" enable-background="new 0 0 100 101.294" xml:space="preserve">
<g>
	<path d="M13.379,59.708h43.375c1.67,0,3.023-1.354,3.023-3.023V14.203c0-1.67-1.354-3.024-3.023-3.024H13.379
		c-1.67,0-3.024,1.354-3.024,3.024v42.481C10.355,58.354,11.709,59.708,13.379,59.708z M16.403,17.227H53.73V53.66H16.403V17.227z"
		/>
	<path d="M67.486,27.512h20.57c1.67,0,3.023-1.354,3.023-3.024s-1.354-3.023-3.023-3.023h-20.57
		c-1.67,0-3.023,1.354-3.023,3.023S65.816,27.512,67.486,27.512z"/>
	<path d="M72.182,34.879H67.71c-1.67,0-3.023,1.354-3.023,3.024c0,1.669,1.354,3.023,3.023,3.023h4.472
		c1.67,0,3.023-1.354,3.023-3.023C75.205,36.233,73.852,34.879,72.182,34.879z"/>
	<path d="M86.234,34.879h-4.473c-1.67,0-3.023,1.354-3.023,3.024c0,1.669,1.354,3.023,3.023,3.023h4.473
		c1.67,0,3.023-1.354,3.023-3.023C89.258,36.233,87.904,34.879,86.234,34.879z"/>
	<path d="M72.182,46.506H67.71c-1.67,0-3.023,1.354-3.023,3.023s1.354,3.023,3.023,3.023h4.472
		c1.67,0,3.023-1.354,3.023-3.023S73.852,46.506,72.182,46.506z"/>
	<path d="M86.234,46.506h-4.473c-1.67,0-3.023,1.354-3.023,3.023s1.354,3.023,3.023,3.023h4.473
		c1.67,0,3.023-1.354,3.023-3.023S87.904,46.506,86.234,46.506z"/>
	<path d="M94.293,0H5.707C2.56,0,0,2.56,0,5.707v78.702c0,3.146,2.56,5.706,5.707,5.706h13.145v8.156
		c0,1.67,1.354,3.023,3.024,3.023h31.749c1.67,0,3.024-1.354,3.024-3.023v-8.156h37.645c3.146,0,5.707-2.56,5.707-5.706V5.707
		C100,2.56,97.439,0,94.293,0z M50.601,95.247H24.899v-5.133v-3.023V72.675h25.702v14.416v3.023V95.247z M93.953,84.067H56.648
		V72.675h2.475c1.67,0,3.023-1.354,3.023-3.023s-1.354-3.023-3.023-3.023h-2.475H18.852h-4.446c-1.67,0-3.023,1.354-3.023,3.023
		s1.354,3.023,3.023,3.023h4.446v11.393H6.047V6.047h87.906V84.067z"/>
</g>
</svg>
