<?xml version="1.0" encoding="UTF-8"?>
<!-- Generator: Adobe Illustrator 16.0.0, SVG Export Plug-In . SVG Version: 6.00 Build 0)  -->
<!DOCTYPE svg PUBLIC "-//W3C//DTD SVG 1.1//EN" "http://www.w3.org/Graphics/SVG/1.1/DTD/svg11.dtd">
<svg version="1.1" id="Capa_1" xmlns="http://www.w3.org/2000/svg" xmlns:xlink="http://www.w3.org/1999/xlink" x="0px" y="0px" width="400px" height="400px" viewBox="0 0 400 400" enable-background="new 0 0 400 400" xml:space="preserve">
<g>
	<g>
		<g>
			<path fill="#FFFFFF" d="M342.414,57.586C304.374,19.546,253.798-1.438,200-1.5C88.893-1.5-1.5,88.893-1.5,200     S88.893,401.5,200,401.5s201.5-90.393,201.5-201.502C401.438,146.202,380.453,95.625,342.414,57.586z M385.597,199.999     C385.484,302.225,302.225,385.483,200,385.597C97.662,385.597,14.404,302.338,14.404,200C14.404,97.662,97.662,14.403,200,14.403     C302.338,14.403,385.597,97.662,385.597,199.999z"/>
			<path fill="#FFFFFF" d="M200,20.855c-4.385,0-7.952,3.567-7.952,7.952v19.354c0,4.385,3.567,7.952,7.952,7.952     s7.951-3.567,7.951-7.952V28.807C207.951,24.422,204.385,20.855,200,20.855z"/>
			<path fill="#FFFFFF" d="M200,343.887c-4.385,0-7.952,3.567-7.952,7.952v19.354c0,4.385,3.567,7.951,7.952,7.951     s7.951-3.566,7.951-7.951v-19.354C207.951,347.454,204.385,343.887,200,343.887z"/>
			<path fill="#FFFFFF" d="M371.194,192.048h-19.355c-4.385,0-7.951,3.567-7.951,7.952s3.566,7.951,7.951,7.951h19.355     c4.385,0,7.951-3.566,7.951-7.951S375.578,192.048,371.194,192.048z"/>
			<path fill="#FFFFFF" d="M48.661,192.048H29.307c-4.385,0-7.952,3.567-7.952,7.952s3.567,7.951,7.952,7.951h19.354     c4.384,0,7.951-3.566,7.951-7.951S53.046,192.048,48.661,192.048z"/>
			<path fill="#FFFFFF" d="M295.989,115.281c1.476-1.528,2.268-3.539,2.231-5.662c-0.037-2.124-0.898-4.106-2.427-5.582     c-1.49-1.439-3.452-2.232-5.523-2.232c-1.86,0-3.632,0.639-5.053,1.811h-0.077l-71.415,71.415     c-0.303,0.307-0.577,0.636-0.823,0.985c-3.945-2.178-8.374-3.322-12.902-3.322s-8.956,1.145-12.902,3.322     c-0.247-0.35-0.523-0.682-0.831-0.993l-51.631-51.632c-1.491-1.439-3.452-2.231-5.524-2.231c-2.177,0-4.208,0.862-5.72,2.428     c-2.991,3.098-2.991,7.95,0.019,11.066l51.621,51.62c0.308,0.304,0.639,0.58,0.989,0.827c-2.163,3.947-3.309,8.374-3.327,12.899     c0,15.057,12.25,27.307,27.307,27.307c15.057,0,27.307-12.25,27.307-27.311c-0.011-4.519-1.149-8.945-3.304-12.894     c0.353-0.248,0.687-0.527,0.999-0.835L295.989,115.281z M200,211.403c-6.288,0-11.403-5.115-11.403-11.403     c0-6.288,5.116-11.403,11.403-11.403c6.288,0,11.403,5.116,11.403,11.403C211.404,206.288,206.288,211.403,200,211.403z"/>
		</g>
	</g>
</g>
</svg>