<?xml version="1.0" encoding="UTF-8"?>
<!-- Generator: Adobe Illustrator 16.0.0, SVG Export Plug-In . SVG Version: 6.00 Build 0)  -->
<!DOCTYPE svg PUBLIC "-//W3C//DTD SVG 1.1//EN" "http://www.w3.org/Graphics/SVG/1.1/DTD/svg11.dtd">
<svg version="1.1" id="Capa_1" xmlns="http://www.w3.org/2000/svg" xmlns:xlink="http://www.w3.org/1999/xlink" x="0px" y="0px" width="1080px" height="1080px" viewBox="0 0 1080 1080" enable-background="new 0 0 1080 1080" xml:space="preserve">
<g>
	<g>
		<path fill="#FFFFFF" d="M540,0C242.232,0,0,242.231,0,540c0,101.582,28.226,200.194,81.769,285.826    c-21.33,74.728-59.856,216.083-60.271,217.558c-1.994,7.312,0.146,15.12,5.606,20.375c5.462,5.254,13.354,7.123,20.541,4.922    l214.048-65.839C345.536,1053.354,441.554,1080,540,1080c297.768,0,540-242.231,540-540C1080,242.231,837.768,0,540,0z     M540,1038.462c-93.856,0-185.283-26.231-264.413-75.829c-3.344-2.098-7.188-3.156-11.028-3.156c-2.057,0-4.112,0.312-6.105,0.913    L71.55,1017.921c13.729-50.116,38.402-139.757,52.712-189.623c1.662-5.773,0.729-12.005-2.533-17.052    C69.265,730.516,41.538,636.723,41.538,540C41.538,265.161,265.16,41.539,540,41.539c274.839,0,498.461,223.622,498.461,498.461    S814.839,1038.462,540,1038.462z"/>
		<path fill="#FFFFFF" d="M892.765,667.232c-38.34-21.289-70.989-42.641-94.813-58.218c-18.192-11.88-31.341-20.457-40.978-25.297    c-26.938-13.438-47.354-3.944-55.121,3.905c-0.977,0.976-1.849,2.035-2.597,3.157c-27.977,41.975-64.509,82.121-75.205,84.28    c-12.357-1.932-70.2-34.81-127.689-82.683c-58.692-48.911-95.621-95.746-101.042-127.646    c37.654-38.757,51.217-63.14,51.217-90.886c0-28.599-66.711-148.001-78.777-160.068c-12.107-12.088-39.378-13.978-81.063-5.67    c-4.009,0.81-7.704,2.783-10.612,5.67c-5.047,5.047-123.142,125.446-67.022,271.372    C270.664,645.3,428.781,831.455,630.365,861.694c22.909,3.427,44.385,5.13,64.488,5.13c118.593,0,188.585-59.67,208.295-178.033    C904.623,680.13,900.448,671.49,892.765,667.232z M636.534,820.613C423.36,788.649,289.087,577.447,247.839,470.236    c-40.915-106.339,34.539-201.15,53.479-222.584c15.411-2.617,31.632-3.718,38.402-2.659    C353.865,264.662,402.84,357.189,405,373.846c0,10.904-3.553,26.086-45.839,68.393c-3.904,3.884-6.086,9.159-6.086,14.684    c0,108.748,229.376,259.615,270,259.615c35.329,0,81.396-59.379,107.626-98.072c1.518,0.063,4.071,0.582,7.706,2.409    c7.478,3.76,20.438,12.213,36.823,22.93c21.642,14.145,50.387,32.919,84.323,52.38    C844.145,770.331,801.069,845.328,636.534,820.613z"/>
	</g>
</g>
</svg>