<?xml version="1.0" encoding="utf-8"?>
<!-- Generator: Adobe Illustrator 16.0.0, SVG Export Plug-In . SVG Version: 6.00 Build 0)  -->
<!DOCTYPE svg PUBLIC "-//W3C//DTD SVG 1.1//EN" "http://www.w3.org/Graphics/SVG/1.1/DTD/svg11.dtd">
<svg version="1.1" id="Capa_1" xmlns="http://www.w3.org/2000/svg" xmlns:xlink="http://www.w3.org/1999/xlink" x="0px" y="0px"
	 width="100px" height="34.822px" viewBox="0 0 100 34.822" enable-background="new 0 0 100 34.822" xml:space="preserve">
<g>
	<path d="M17.085,34.822c-2.167,0-4.265-0.391-6.288-1.171c-2.024-0.781-3.846-1.887-5.464-3.317
		c-1.619-1.431-2.913-3.253-3.881-5.464C0.484,22.658,0,20.223,0,17.563c0-5.031,1.705-9.215,5.116-12.554
		C8.528,1.669,12.59,0,17.303,0c2.254,0,4.343,0.354,6.265,1.062c1.922,0.709,3.506,1.634,4.749,2.776
		c1.243,1.143,2.256,2.327,3.036,3.555c0.781,1.229,1.33,2.465,1.648,3.708l-5.248,1.778c-0.145-0.694-0.411-1.417-0.801-2.168
		c-0.391-0.751-0.969-1.589-1.735-2.516c-0.767-0.925-1.843-1.69-3.231-2.298c-1.387-0.607-2.978-0.91-4.77-0.91
		c-3.094,0-5.797,1.149-8.11,3.447c-2.313,2.299-3.469,5.283-3.469,8.956c0,3.642,1.15,6.627,3.448,8.955s5.008,3.49,8.131,3.49
		c1.647,0,3.144-0.289,4.488-0.867c1.345-0.578,2.421-1.329,3.23-2.255c0.809-0.925,1.438-1.792,1.887-2.602
		c0.448-0.81,0.787-1.589,1.019-2.342l5.248,1.821c-0.29,1.156-0.818,2.335-1.583,3.534c-0.766,1.2-1.778,2.4-3.035,3.6
		c-1.258,1.2-2.884,2.183-4.879,2.948C21.595,34.438,19.427,34.822,17.085,34.822z"/>
	<path d="M35.993,34.431L49.826,0.477h6.287L69.86,34.431h-5.55l-3.079-7.979H44.58l-3.123,7.979H35.993z
		 M52.905,5.594l-6.418,16.131h12.88L52.905,5.594z"/>
	<path d="M100,11.015c0,3.094-1.106,5.673-3.317,7.74c-2.213,2.067-5.284,3.101-9.216,3.101h-6.027v12.575h-5.334
		V0.477h12.013c3.961,0,6.931,1.026,8.911,3.079C99.009,5.609,100,8.095,100,11.015z M92.888,15.221
		c1.128-1.155,1.691-2.515,1.691-4.076c0-1.562-0.528-2.906-1.583-4.033c-1.056-1.127-2.84-1.691-5.355-1.691h-6.201v11.535h6.201
		C90.012,16.955,91.76,16.377,92.888,15.221z"/>
</g>
</svg>
