<?xml version="1.0" encoding="utf-8"?>
<!-- Generator: Adobe Illustrator 16.0.0, SVG Export Plug-In . SVG Version: 6.00 Build 0)  -->
<!DOCTYPE svg PUBLIC "-//W3C//DTD SVG 1.1//EN" "http://www.w3.org/Graphics/SVG/1.1/DTD/svg11.dtd">
<svg version="1.1" id="Capa_1" xmlns="http://www.w3.org/2000/svg" xmlns:xlink="http://www.w3.org/1999/xlink" x="0px" y="0px"
	 width="100px" height="99.938px" viewBox="0 0 100 99.938" enable-background="new 0 0 100 99.938" xml:space="preserve">
<g>
	<path d="M52.486,12.206H42.193c-1.607,0-2.91,1.303-2.91,2.91c0,1.607,1.303,2.91,2.91,2.91h10.293
		c1.607,0,2.91-1.303,2.91-2.91C55.396,13.509,54.094,12.206,52.486,12.206z"/>
	<path d="M31.602,59.299H21.309c-1.607,0-2.91,1.303-2.91,2.91s1.303,2.91,2.91,2.91h10.293
		c1.607,0,2.91-1.303,2.91-2.91S33.209,59.299,31.602,59.299z"/>
	<path d="M97.09,47.09H73.795V2.91c0-1.607-1.304-2.91-2.91-2.91h-47.09c-1.607,0-2.91,1.303-2.91,2.91v44.18H2.91
		C1.303,47.09,0,48.393,0,50v47.088c0,1.607,1.303,2.91,2.91,2.91H50H97.09c1.607,0,2.91-1.303,2.91-2.91V50
		C100,48.393,98.697,47.09,97.09,47.09z M26.705,5.82h41.27v41.268h-41.27V5.82z M5.82,52.91h41.27v41.268H5.82V52.91z
		 M94.18,94.178H52.91V52.91h41.27V94.178z"/>
	<path d="M68.398,65.119h10.293c1.607,0,2.91-1.303,2.91-2.91s-1.303-2.91-2.91-2.91H68.398
		c-1.607,0-2.91,1.303-2.91,2.91S66.791,65.119,68.398,65.119z"/>
</g>
</svg>
