<?xml version="1.0" encoding="utf-8"?>
<!-- Generator: Adobe Illustrator 16.0.0, SVG Export Plug-In . SVG Version: 6.00 Build 0)  -->
<!DOCTYPE svg PUBLIC "-//W3C//DTD SVG 1.1//EN" "http://www.w3.org/Graphics/SVG/1.1/DTD/svg11.dtd">
<svg version="1.1" id="Capa_1" xmlns="http://www.w3.org/2000/svg" xmlns:xlink="http://www.w3.org/1999/xlink" x="0px" y="0px"
	 width="100px" height="101.896px" viewBox="0 0 100 101.896" enable-background="new 0 0 100 101.896" xml:space="preserve">
<g>
	<path d="M43.839,14.374h12.639c1.525,0,2.764-1.237,2.764-2.764c0-1.526-1.238-2.764-2.764-2.764H43.839
		c-1.526,0-2.764,1.238-2.764,2.764C41.076,13.137,42.313,14.374,43.839,14.374z"/>
	<path d="M37.205,69.512H24.565c-1.526,0-2.764,1.236-2.764,2.764c0,1.525,1.238,2.764,2.764,2.764h12.639
		c1.526,0,2.764-1.238,2.764-2.764C39.969,70.748,38.731,69.512,37.205,69.512z"/>
	<path d="M64.378,75.039h12.638c1.526,0,2.764-1.238,2.764-2.764c0-1.527-1.237-2.764-2.764-2.764H64.378
		c-1.526,0-2.764,1.236-2.764,2.764C61.614,73.801,62.852,75.039,64.378,75.039z"/>
	<path d="M97.236,43.287c-1.526,0-2.764,1.238-2.764,2.764v4.683l-2.687,2.171V7.731C91.786,3.468,88.766,0,85.055,0
		H14.292C10.58,0,7.56,3.468,7.56,7.731v44.855l-2.032-1.784V46.05c0-1.526-1.237-2.764-2.764-2.764S0,44.524,0,46.05v12.639
		c0,1.525,1.237,2.764,2.764,2.764s2.764-1.238,2.764-2.764v-0.531l2.032,1.783v22.217c0,2.918,1.416,5.463,3.499,6.777v6.406
		c0,3.613,2.941,6.555,6.556,6.555h8.847c3.615,0,6.556-2.941,6.556-6.555v-5.453H66.67v5.453c0,3.613,2.94,6.555,6.554,6.555h8.848
		c3.613,0,6.554-2.941,6.554-6.555v-6.643c1.896-1.369,3.161-3.785,3.161-6.541V60.01l2.687-2.172v0.852
		c0,1.525,1.237,2.764,2.764,2.764S100,60.215,100,58.689V46.05C100,44.524,98.763,43.287,97.236,43.287z M86.259,82.158
		c0,1.324-0.725,2.203-1.204,2.203H14.292c-0.479,0-1.205-0.879-1.205-2.203V61.453h73.172V82.158z M71.367,41.233
		c-1.091-1.068-2.84-1.05-3.908,0.041L53.104,55.926H13.087V27.329h73.172v28.597H60.842l10.565-10.785
		C72.475,44.05,72.457,42.301,71.367,41.233z M14.292,5.527h70.763c0.479,0,1.204,0.879,1.204,2.204v14.07H13.087V7.731
		C13.087,6.406,13.813,5.527,14.292,5.527z M27.489,95.342c0,0.566-0.461,1.027-1.028,1.027h-8.847
		c-0.566,0-1.028-0.461-1.028-1.027v-5.453h10.903V95.342z M82.071,96.369h-8.848c-0.566,0-1.026-0.461-1.026-1.027v-5.453h10.9
		v5.453C83.098,95.908,82.638,96.369,82.071,96.369z"/>
</g>
</svg>
