<?xml version="1.0" encoding="utf-8"?>
<!-- Generator: Adobe Illustrator 24.1.3, SVG Export Plug-In . SVG Version: 6.00 Build 0)  -->
<svg version="1.1" id="Capa_1" xmlns="http://www.w3.org/2000/svg" xmlns:xlink="http://www.w3.org/1999/xlink" x="0px" y="0px"
	 viewBox="0 0 100 100" style="enable-background:new 0 0 100 100;" xml:space="preserve">
<g>
	<path class="st0" d="M68.8,22.1C68.8,11.6,60.2,3,49.7,3c-10.5,0-19.1,8.6-19.1,19.1c0,16.9,13.6,31.1,17.8,35.1l0.2,0.2
		c0.4,0.3,0.8,0.5,1.2,0.5c0.4,0,0.8-0.2,1-0.4l0.1-0.1C51,57.2,68.8,41.4,68.8,22.1z M50.2,53l-0.4,0.4L49.4,53
		c-5.6-5.9-15-17.7-15-30.9c0-8.5,6.9-15.4,15.4-15.4c8.5,0,15.4,6.9,15.4,15.4C65.2,36.1,54.7,48.4,50.2,53z"/>
	<path class="st0" d="M49.8,11.4c-6,0-10.8,4.8-10.8,10.8S43.8,33,49.8,33s10.8-4.8,10.8-10.8S55.8,11.4,49.8,11.4z M49.8,29.2
		c-3.9,0-7.1-3.2-7.1-7.1s3.2-7.1,7.1-7.1c3.8,0,7.1,3.3,7.1,7.1C56.9,26,53.7,29.2,49.8,29.2z"/>
	<path class="st0" d="M1.9,53.6c-0.6,0.4-0.9,1-0.8,1.6c0.1,0.6,0.5,1.2,1.1,1.5l16.6,8.7l4.6,30c0.2,1,0.9,1.6,1.8,1.6h49.6
		c1,0,1.8-0.6,2-1.6l4.6-29.9L98,56.8c0.6-0.3,0.9-0.8,1-1.5c0-0.4-0.1-1.1-0.8-1.6l0,0L77.9,38.8c-0.6-0.5-1.5-0.5-2.1-0.1L68,43.9
		h-3.4c-1,0-1.9,0.9-1.9,1.9c0,1,0.9,1.9,1.9,1.9h2.9l8.8,14.7H23.8l8.8-14.7h2.7c1,0,1.9-0.9,1.9-1.9c0-1-0.9-1.9-1.9-1.9h-3.2
		l-7.8-5.2c-0.3-0.2-0.6-0.3-1-0.3c-0.4,0-0.8,0.1-1.1,0.4L1.9,53.6z M71,46.4l5.7-3.8l16.8,12.1l-13.3,7L71,46.4z M77.5,66.1
		l-4.2,27.2H26.9l-4.2-27.2H77.5z M23.4,42.6l5.7,3.8l-9.3,15.4l-13.3-7L23.4,42.6z"/>
</g>
</svg>
