<?xml version="1.0" encoding="utf-8"?>
<!-- Generator: Adobe Illustrator 24.1.3, SVG Export Plug-In . SVG Version: 6.00 Build 0)  -->
<svg version="1.1" id="Capa_1" xmlns="http://www.w3.org/2000/svg" xmlns:xlink="http://www.w3.org/1999/xlink" x="0px" y="0px"
	 viewBox="0 0 82.6 59.6" style="enable-background:new 0 0 82.6 59.6;" xml:space="preserve">
<g>
	<g>
		<path class="st0" d="M28.7,30.9V23H17.3v7.9H9.4v11.4h7.9v7.9h11.4v-7.9h7.9V30.9H28.7z M33.9,39.6H26v7.9h-6v-7.9h-7.9v-6H20
			v-7.9h6v7.9h7.9V39.6z"/>
	</g>
</g>
<g>
	<path class="st0" d="M43.1,39c-0.5,4.5-2.5,8.7-5.8,11.9c-3.8,3.8-8.9,5.9-14.4,5.9S12.5,54.8,8.6,51C4.8,47.1,2.7,42,2.7,36.6
		c0-5.4,2.1-10.5,5.9-14.4c3.8-3.8,8.9-5.9,14.4-5.9c5.1,0,9.9,1.9,13.7,5.3c0.1-1.1,0.2-2.2,0.4-3.2c-4-3.1-8.9-4.8-14.1-4.8
		c-6.1,0-11.9,2.4-16.3,6.7C2.4,24.7,0,30.5,0,36.6c0,6.1,2.4,11.9,6.7,16.3c4.3,4.3,10.1,6.7,16.3,6.7s11.9-2.4,16.3-6.7
		c3.2-3.3,5.4-7.3,6.3-11.7c-0.8-0.6-1.5-1.2-2.2-1.9C43.3,39.2,43.2,39.1,43.1,39z"/>
	<path class="st0" d="M39.4,24.7c2.2,3,3.5,6.5,3.8,10.3c0.6,0.8,1.3,1.7,2,2.4c0.2,0.2,0.4,0.4,0.7,0.6c0-0.4,0.1-0.9,0.1-1.4
		c0-6-2.3-11.7-6.5-16c-0.1,0.8-0.2,1.6-0.2,2.4C39.3,23.6,39.3,24.1,39.4,24.7z"/>
	<path class="st0" d="M75.9,6.7C71.5,2.4,65.8,0,59.6,0S47.7,2.4,43.4,6.7c-3.3,3.3-5.4,7.3-6.3,11.7c0.8,0.6,1.5,1.2,2.2,1.9
		c0.1,0.1,0.1,0.2,0.2,0.2c0.5-4.5,2.5-8.7,5.8-11.9c3.8-3.8,8.9-5.9,14.4-5.9S70.1,4.8,74,8.6c3.8,3.8,5.9,8.9,5.9,14.4
		c0,5.4-2.1,10.5-5.9,14.4c-3.8,3.8-8.9,5.9-14.4,5.9c-5.1,0-9.9-1.9-13.7-5.3c-0.1,1.1-0.2,2.2-0.4,3.2c4,3.1,8.9,4.8,14.1,4.8
		c6.1,0,11.9-2.4,16.3-6.7c4.3-4.3,6.7-10.1,6.7-16.3C82.6,16.9,80.2,11.1,75.9,6.7z"/>
	<path class="st0" d="M45.3,37.4c-0.8-0.8-1.4-1.6-2-2.4c0,0.6,0.1,1.1,0.1,1.7c0,0.8-0.1,1.6-0.2,2.4c0.1,0.1,0.1,0.2,0.2,0.2
		c0.7,0.7,1.4,1.3,2.2,1.9c0.2-1,0.3-2.1,0.4-3.2C45.7,37.8,45.5,37.6,45.3,37.4z"/>
	<path class="st0" d="M37.4,22.3c0.8,0.8,1.4,1.6,2,2.4c0-0.6-0.1-1.1-0.1-1.7c0-0.8,0.1-1.6,0.2-2.4c-0.1-0.1-0.1-0.2-0.2-0.2
		c-0.7-0.7-1.4-1.3-2.2-1.9c-0.2,1-0.3,2.1-0.4,3.2C36.9,21.9,37.1,22,37.4,22.3z"/>
</g>
<g>
	<g>
		<path class="st0" d="M65.3,17.3V9.4H53.9v7.9H46v11.4h7.9v7.9h11.4v-7.9h7.9V17.3H65.3z M70.5,26h-7.9v7.9h-6V26h-7.9v-6h7.9v-7.9
			h6V20h7.9V26z"/>
	</g>
</g>
</svg>
