<?xml version="1.0" encoding="utf-8"?>
<!-- Generator: Adobe Illustrator 16.0.0, SVG Export Plug-In . SVG Version: 6.00 Build 0)  -->
<!DOCTYPE svg PUBLIC "-//W3C//DTD SVG 1.1//EN" "http://www.w3.org/Graphics/SVG/1.1/DTD/svg11.dtd">
<svg version="1.1" id="Capa_1" xmlns="http://www.w3.org/2000/svg" xmlns:xlink="http://www.w3.org/1999/xlink" x="0px" y="0px"
	 width="100px" height="35.889px" viewBox="0 0 100 35.889" enable-background="new 0 0 100 35.889" xml:space="preserve">
<path d="M83.937,12.987L79.006,5.03c-0.145-0.247-0.978-1.627-2.249-2.424c-1.665-1.043-3.218-1.072-3.39-1.072
	H62.891c-6.007,0-11.65,2.161-16.134,5.884l-6.751-3.94c-0.568-0.33-1.296-0.139-1.625,0.429C38.049,4.473,38.241,5.2,38.807,5.53
	l6.113,3.566c-2.959,2.97-5.273,6.694-6.646,10.96c-0.059,0.183-0.066,0.368-0.038,0.547c-0.01,0.061-0.02,0.123-0.02,0.188v0.841
	h-5.148V4.157C33.069,1.864,31.204,0,28.911,0H4.159C1.866,0,0,1.864,0,4.157V25.94c0,2.293,1.866,4.158,4.159,4.158h5.804
	c0.437,3.266,3.239,5.791,6.621,5.791c3.383,0,6.186-2.525,6.623-5.791h5.705c2.293,0,4.159-1.865,4.159-4.158v-1.93h5.148v4.357
	c0,0.654,0.532,1.187,1.189,1.187h6.597c0.611,3.482,3.655,6.139,7.31,6.139c3.657,0,6.7-2.656,7.313-6.139h20.815
	c0.592,3.506,3.648,6.188,7.319,6.188c3.672,0,6.73-2.682,7.321-6.188h2.729c0.655,0,1.188-0.533,1.188-1.187v-5.942
	C100,14.901,94.592,13.165,83.937,12.987z M16.583,33.514c-2.068,0-3.802-1.467-4.213-3.416h8.428
	C20.386,32.047,18.654,33.514,16.583,33.514z M12.546,27.723c0.606-1.654,2.191-2.822,4.037-2.822c1.848,0,3.433,1.168,4.039,2.822
	H12.546z M30.692,25.94c0,0.982-0.799,1.783-1.782,1.783h-5.823c-0.677-2.99-3.341-5.198-6.504-5.198
	c-3.162,0-5.826,2.208-6.503,5.198H4.159c-0.983,0-1.783-0.8-1.783-1.783V4.157c0-0.983,0.8-1.782,1.783-1.782h24.752
	c0.983,0,1.782,0.799,1.782,1.782V25.94z M62.891,3.91h10.465c0.012,0,1.049,0.027,2.14,0.711c0.687,0.428,1.285,1.304,1.456,1.603
	c0.007,0.014,0.017,0.027,0.024,0.041l4.156,6.707c-10.583,0.02-31.502,0.452-36.896,0.565C48.619,7.581,55.444,3.91,62.891,3.91z
	 M53.313,33.316c-2.754,0-4.998-2.217-5.045-4.961c0-0.001,0.001-0.002,0.001-0.004c-0.001-0.03-0.002-0.062-0.003-0.095
	c0-0.094,0.008-0.185,0.014-0.277c0.004-0.081,0.005-0.16,0.014-0.239c0.009-0.088,0.025-0.175,0.04-0.261
	c0.013-0.081,0.021-0.161,0.036-0.239c0.018-0.083,0.043-0.161,0.063-0.241c0.022-0.083,0.039-0.163,0.063-0.241
	c0.023-0.077,0.055-0.149,0.081-0.224c0.03-0.079,0.056-0.162,0.09-0.24c0.03-0.07,0.066-0.135,0.098-0.204
	c0.039-0.08,0.074-0.161,0.116-0.237c0.034-0.063,0.074-0.123,0.113-0.185c0.047-0.077,0.089-0.155,0.141-0.23
	c0.038-0.058,0.083-0.111,0.126-0.168c0.053-0.075,0.105-0.149,0.165-0.221c0.042-0.051,0.091-0.099,0.136-0.149
	c0.063-0.07,0.124-0.142,0.191-0.207c0.047-0.047,0.1-0.09,0.148-0.136c0.068-0.065,0.139-0.131,0.209-0.19
	c0.051-0.043,0.11-0.082,0.162-0.123c0.075-0.057,0.149-0.116,0.227-0.168c0.056-0.039,0.119-0.07,0.177-0.106
	c0.078-0.05,0.155-0.101,0.24-0.145c0.061-0.036,0.127-0.063,0.193-0.095c0.081-0.04,0.161-0.083,0.245-0.118
	c0.071-0.029,0.146-0.052,0.217-0.079c0.083-0.032,0.162-0.065,0.245-0.092c0.089-0.026,0.178-0.045,0.265-0.067
	c0.072-0.019,0.144-0.041,0.219-0.056c0.104-0.022,0.211-0.034,0.317-0.049c0.063-0.009,0.122-0.022,0.183-0.028
	c0.171-0.017,0.343-0.026,0.515-0.026c0.175,0,0.348,0.01,0.516,0.026c0.067,0.007,0.131,0.021,0.2,0.031
	c0.102,0.015,0.202,0.026,0.302,0.045c0.081,0.018,0.159,0.042,0.24,0.063c0.08,0.021,0.163,0.038,0.241,0.061
	c0.091,0.028,0.176,0.064,0.263,0.096c0.064,0.026,0.136,0.046,0.2,0.075c0.09,0.038,0.178,0.083,0.267,0.127
	c0.059,0.029,0.117,0.054,0.172,0.085c0.092,0.049,0.177,0.103,0.264,0.157c0.049,0.032,0.104,0.061,0.153,0.094
	c0.084,0.057,0.166,0.121,0.247,0.183c0.044,0.036,0.097,0.068,0.141,0.107c0.079,0.065,0.155,0.137,0.229,0.207
	c0.042,0.039,0.09,0.078,0.132,0.119c0.071,0.071,0.138,0.15,0.204,0.225c0.041,0.044,0.084,0.086,0.12,0.131
	c0.066,0.077,0.122,0.158,0.179,0.239c0.038,0.051,0.08,0.098,0.112,0.15c0.056,0.077,0.102,0.161,0.15,0.242
	c0.033,0.057,0.072,0.113,0.105,0.172c0.043,0.08,0.079,0.164,0.117,0.245c0.032,0.066,0.068,0.128,0.094,0.195
	c0.036,0.08,0.063,0.166,0.094,0.247c0.025,0.071,0.056,0.143,0.08,0.217c0.022,0.079,0.041,0.162,0.063,0.244
	c0.021,0.08,0.046,0.157,0.059,0.238c0.018,0.08,0.026,0.161,0.04,0.243c0.014,0.085,0.032,0.171,0.041,0.257
	c0.009,0.08,0.009,0.16,0.012,0.24c0.004,0.092,0.013,0.183,0.013,0.276c-0.002,0.028-0.004,0.061-0.005,0.09
	c0,0.002,0.001,0.005,0.001,0.007C58.314,31.098,56.071,33.316,53.313,33.316z M88.761,33.366c-2.772,0-5.026-2.246-5.046-5.014
	c0-0.001,0-0.004,0-0.006c0-0.015,0-0.028-0.001-0.042c0-0.096,0.009-0.19,0.015-0.285c0.005-0.078,0.006-0.154,0.012-0.231
	c0.009-0.092,0.027-0.182,0.041-0.272c0.013-0.074,0.021-0.153,0.038-0.227c0.019-0.089,0.042-0.173,0.065-0.258
	c0.021-0.076,0.037-0.151,0.058-0.223c0.027-0.084,0.062-0.162,0.091-0.244c0.026-0.073,0.052-0.147,0.083-0.22
	c0.03-0.076,0.071-0.15,0.107-0.225c0.033-0.072,0.066-0.145,0.104-0.215c0.039-0.072,0.086-0.138,0.126-0.208
	c0.044-0.069,0.082-0.14,0.129-0.208c0.043-0.065,0.095-0.127,0.141-0.19c0.051-0.065,0.097-0.135,0.149-0.199
	c0.049-0.059,0.104-0.114,0.156-0.171c0.058-0.063,0.111-0.126,0.172-0.186c0.052-0.054,0.109-0.102,0.167-0.153
	c0.062-0.058,0.126-0.119,0.19-0.173c0.057-0.048,0.121-0.089,0.181-0.135c0.068-0.052,0.137-0.106,0.207-0.154
	c0.063-0.042,0.132-0.079,0.197-0.119c0.071-0.044,0.142-0.092,0.221-0.132c0.067-0.039,0.141-0.069,0.211-0.104
	c0.078-0.038,0.15-0.077,0.228-0.109c0.075-0.031,0.155-0.057,0.231-0.084c0.077-0.029,0.152-0.061,0.231-0.085
	c0.087-0.026,0.177-0.046,0.264-0.067c0.072-0.019,0.144-0.041,0.219-0.057c0.102-0.021,0.207-0.033,0.312-0.047
	c0.064-0.009,0.126-0.022,0.188-0.029c0.171-0.017,0.343-0.026,0.515-0.026c0.175,0,0.348,0.009,0.517,0.026
	c0.063,0.007,0.127,0.02,0.19,0.03c0.104,0.015,0.208,0.026,0.311,0.047c0.068,0.015,0.137,0.036,0.208,0.054
	c0.092,0.022,0.185,0.043,0.273,0.07c0.074,0.023,0.145,0.054,0.219,0.081c0.082,0.028,0.165,0.055,0.244,0.088
	c0.072,0.031,0.146,0.069,0.216,0.104c0.074,0.036,0.151,0.068,0.224,0.109c0.073,0.039,0.142,0.084,0.211,0.127
	c0.069,0.041,0.14,0.08,0.205,0.124c0.071,0.047,0.135,0.1,0.2,0.149c0.065,0.048,0.129,0.091,0.188,0.141
	c0.065,0.053,0.124,0.112,0.186,0.169c0.059,0.052,0.117,0.102,0.174,0.157c0.059,0.06,0.11,0.123,0.168,0.184
	c0.051,0.059,0.108,0.114,0.156,0.173c0.056,0.065,0.1,0.134,0.151,0.199c0.046,0.063,0.097,0.125,0.14,0.191
	c0.048,0.066,0.086,0.139,0.13,0.209c0.043,0.069,0.086,0.134,0.125,0.206c0.038,0.072,0.07,0.145,0.107,0.219
	c0.034,0.073,0.074,0.146,0.104,0.221c0.032,0.073,0.058,0.149,0.086,0.224c0.026,0.08,0.061,0.157,0.087,0.24
	c0.022,0.073,0.037,0.15,0.059,0.227c0.022,0.084,0.05,0.168,0.064,0.256c0.017,0.074,0.024,0.152,0.038,0.229
	c0.015,0.09,0.032,0.178,0.042,0.269c0.009,0.079,0.01,0.157,0.015,0.236c0.002,0.093,0.011,0.186,0.011,0.281
	c-0.001,0.016-0.002,0.032-0.002,0.042c0,0.002,0.001,0.005,0.001,0.006C93.791,31.12,91.536,33.366,88.761,33.366z M97.623,27.178
	h-1.522c0-0.006-0.003-0.011-0.003-0.016c-0.032-0.202-0.071-0.4-0.121-0.596c-0.006-0.021-0.01-0.044-0.016-0.065
	c-0.046-0.19-0.104-0.377-0.166-0.561c-0.01-0.03-0.021-0.061-0.031-0.09c-0.063-0.18-0.132-0.356-0.208-0.529
	c-0.014-0.028-0.027-0.061-0.042-0.09c-0.079-0.173-0.163-0.342-0.255-0.508c-0.015-0.023-0.029-0.047-0.043-0.071
	c-0.097-0.17-0.199-0.337-0.31-0.5c-0.007-0.01-0.015-0.02-0.021-0.029c-0.109-0.161-0.226-0.318-0.35-0.471
	c-0.011-0.012-0.02-0.023-0.03-0.036c-0.12-0.15-0.252-0.293-0.386-0.432c-0.021-0.022-0.037-0.041-0.058-0.063
	c-0.133-0.134-0.268-0.263-0.41-0.386c-0.025-0.022-0.048-0.042-0.072-0.064c-0.144-0.12-0.289-0.239-0.442-0.349
	c-0.021-0.017-0.048-0.035-0.072-0.052c-0.155-0.11-0.318-0.218-0.482-0.318c-0.016-0.01-0.032-0.018-0.048-0.027
	c-0.169-0.1-0.343-0.195-0.521-0.283c-0.008-0.004-0.016-0.008-0.023-0.011c-0.178-0.087-0.36-0.164-0.546-0.237
	c-0.025-0.009-0.052-0.02-0.077-0.028c-0.18-0.069-0.362-0.128-0.547-0.182c-0.034-0.009-0.063-0.019-0.096-0.028
	c-0.186-0.051-0.372-0.094-0.563-0.13c-0.032-0.006-0.066-0.012-0.096-0.018c-0.194-0.034-0.393-0.062-0.592-0.081
	c-0.024-0.002-0.05-0.003-0.071-0.006c-0.212-0.019-0.425-0.029-0.642-0.029c-0.215,0-0.429,0.01-0.637,0.029
	c-0.025,0.003-0.049,0.004-0.074,0.006c-0.2,0.02-0.396,0.047-0.592,0.081c-0.03,0.006-0.063,0.012-0.096,0.018
	c-0.19,0.036-0.378,0.08-0.563,0.13c-0.031,0.01-0.063,0.019-0.096,0.028c-0.185,0.054-0.367,0.112-0.548,0.182
	c-0.024,0.008-0.05,0.02-0.073,0.028c-0.188,0.073-0.371,0.15-0.549,0.237c-0.008,0.002-0.017,0.006-0.023,0.011
	c-0.178,0.087-0.351,0.183-0.521,0.283c-0.017,0.009-0.031,0.018-0.048,0.027c-0.165,0.1-0.324,0.208-0.482,0.318
	c-0.025,0.018-0.047,0.036-0.072,0.052c-0.153,0.11-0.298,0.229-0.442,0.349c-0.021,0.021-0.048,0.042-0.071,0.064
	c-0.141,0.124-0.279,0.252-0.411,0.386c-0.018,0.022-0.037,0.041-0.058,0.063c-0.135,0.139-0.263,0.282-0.386,0.432
	c-0.01,0.013-0.02,0.023-0.029,0.036c-0.124,0.153-0.239,0.31-0.351,0.471c-0.007,0.009-0.015,0.019-0.021,0.029
	c-0.11,0.163-0.213,0.329-0.31,0.5c-0.015,0.024-0.029,0.048-0.039,0.071c-0.093,0.166-0.18,0.335-0.259,0.508
	c-0.014,0.029-0.027,0.062-0.039,0.09c-0.079,0.172-0.147,0.349-0.211,0.529c-0.011,0.03-0.021,0.061-0.031,0.09
	c-0.062,0.184-0.119,0.371-0.166,0.561c-0.006,0.021-0.011,0.044-0.017,0.065c-0.048,0.195-0.088,0.394-0.12,0.596
	c-0.002,0.005-0.002,0.01-0.004,0.016H60.661c-0.001-0.004-0.002-0.008-0.003-0.013c-0.031-0.203-0.068-0.403-0.117-0.6
	c-0.006-0.026-0.013-0.052-0.019-0.08c-0.046-0.19-0.103-0.377-0.163-0.562c-0.01-0.031-0.02-0.06-0.03-0.089
	c-0.063-0.182-0.132-0.362-0.212-0.539c-0.01-0.026-0.021-0.052-0.033-0.077c-0.08-0.179-0.169-0.355-0.264-0.526
	c-0.007-0.017-0.017-0.034-0.026-0.048c-0.2-0.357-0.43-0.695-0.683-1.012c-0.013-0.016-0.025-0.034-0.039-0.049
	c-0.123-0.148-0.249-0.293-0.383-0.434c-0.021-0.02-0.041-0.042-0.06-0.063c-0.134-0.137-0.271-0.267-0.41-0.39
	c-0.024-0.021-0.05-0.041-0.071-0.062c-0.145-0.124-0.292-0.243-0.446-0.355c-0.021-0.015-0.042-0.031-0.064-0.046
	c-0.161-0.115-0.325-0.224-0.492-0.327c-0.011-0.006-0.021-0.011-0.033-0.018c-0.169-0.102-0.344-0.198-0.521-0.285
	c-0.013-0.007-0.025-0.014-0.039-0.021c-0.177-0.085-0.357-0.163-0.545-0.236c-0.024-0.01-0.051-0.021-0.078-0.03
	c-0.179-0.068-0.362-0.128-0.548-0.182c-0.033-0.01-0.063-0.02-0.097-0.028c-0.186-0.052-0.374-0.096-0.565-0.131
	c-0.032-0.007-0.064-0.012-0.095-0.018c-0.195-0.034-0.394-0.063-0.596-0.083c-0.023-0.002-0.048-0.003-0.072-0.005
	c-0.21-0.019-0.425-0.029-0.643-0.029c-0.217,0-0.432,0.011-0.642,0.029c-0.023,0.002-0.047,0.003-0.071,0.005
	c-0.201,0.02-0.4,0.048-0.597,0.083c-0.029,0.006-0.062,0.011-0.094,0.018c-0.191,0.036-0.38,0.08-0.565,0.132
	c-0.03,0.009-0.063,0.019-0.097,0.028c-0.186,0.054-0.368,0.113-0.548,0.182c-0.027,0.01-0.054,0.021-0.077,0.03
	c-0.185,0.073-0.369,0.15-0.547,0.237c-0.013,0.005-0.024,0.013-0.033,0.018c-0.183,0.088-0.357,0.185-0.528,0.287
	c-0.01,0.006-0.021,0.011-0.03,0.017c-0.169,0.104-0.331,0.212-0.493,0.328c-0.022,0.015-0.042,0.031-0.064,0.045
	c-0.153,0.113-0.302,0.231-0.446,0.355c-0.022,0.021-0.047,0.041-0.07,0.062c-0.143,0.124-0.279,0.253-0.411,0.39
	c-0.021,0.02-0.041,0.042-0.062,0.063c-0.132,0.141-0.26,0.284-0.382,0.434c-0.013,0.016-0.025,0.034-0.039,0.05
	c-0.127,0.157-0.247,0.32-0.361,0.488c0,0-0.001,0-0.001,0.001c-0.112,0.168-0.217,0.341-0.316,0.519
	c-0.011,0.017-0.022,0.035-0.032,0.053c-0.093,0.169-0.179,0.344-0.259,0.521c-0.012,0.028-0.026,0.055-0.039,0.082
	c-0.076,0.176-0.146,0.354-0.208,0.535c-0.011,0.032-0.022,0.063-0.033,0.095c-0.06,0.183-0.115,0.368-0.162,0.557
	c-0.007,0.029-0.013,0.057-0.02,0.084c-0.046,0.196-0.085,0.394-0.115,0.595c0,0.005-0.002,0.01-0.002,0.015h-5.375v-6.386
	c0-0.046-0.009-0.09-0.014-0.136c0.551-1.684,1.264-3.273,2.115-4.754c0.097,0.023,0.197,0.04,0.3,0.038
	c0.27-0.006,27.104-0.594,38.887-0.594c13.554,0,15.74,2.086,15.74,7.08V27.178z"/>
</svg>
