<?xml version="1.0" encoding="utf-8"?>
<!-- Generator: Adobe Illustrator 16.0.0, SVG Export Plug-In . SVG Version: 6.00 Build 0)  -->
<!DOCTYPE svg PUBLIC "-//W3C//DTD SVG 1.1//EN" "http://www.w3.org/Graphics/SVG/1.1/DTD/svg11.dtd">
<svg version="1.1" id="Capa_1" xmlns="http://www.w3.org/2000/svg" xmlns:xlink="http://www.w3.org/1999/xlink" x="0px" y="0px"
	 width="100px" height="91.085px" viewBox="0 0 100 91.085" enable-background="new 0 0 100 91.085" xml:space="preserve">
<path d="M97.472,75.869V27.791c1.417-0.145,2.528-1.329,2.528-2.785c0-1.554-1.26-2.814-2.814-2.814H55.951
	l5.791-5.377c0.574-0.534,0.9-1.283,0.898-2.067c-0.001-0.785-0.33-1.533-0.907-2.064l-7.657-7.054h19.857
	c1.553,0,2.813-1.26,2.813-2.814C76.747,1.26,75.486,0,73.934,0H25.901c-1.554,0-2.814,1.26-2.814,2.814
	c0,1.554,1.26,2.814,2.814,2.814h19.858l-7.501,6.914c-0.574,0.529-0.902,1.273-0.907,2.054c-0.005,0.78,0.315,1.528,0.883,2.063
	l5.867,5.532H2.814C1.26,22.191,0,23.451,0,25.005s1.26,2.814,2.814,2.814h0.83v24.438c-0.083,0.266-0.14,0.543-0.14,0.836
	c0,0.292,0.057,0.569,0.14,0.835V75.84h-0.83C1.26,75.84,0,77.101,0,78.654c0,1.555,1.26,2.814,2.814,2.814h0.277
	c-0.495,0.919-0.777,1.97-0.777,3.085c0,3.602,2.93,6.531,6.531,6.531s6.531-2.93,6.531-6.531c0-1.115-0.282-2.166-0.777-3.085
	h4.236c-0.495,0.919-0.777,1.97-0.777,3.085c0,3.602,2.93,6.531,6.532,6.531s6.531-2.93,6.531-6.531
	c0-1.115-0.282-2.166-0.777-3.085h39.163c-0.496,0.919-0.777,1.97-0.777,3.085c0,3.602,2.93,6.531,6.531,6.531
	s6.531-2.93,6.531-6.531c0-1.115-0.281-2.166-0.776-3.085h4.235c-0.495,0.919-0.777,1.97-0.777,3.085
	c0,3.602,2.93,6.531,6.532,6.531c3.601,0,6.531-2.93,6.531-6.531c0-1.115-0.282-2.166-0.778-3.085h0.426
	c1.555,0,2.814-1.26,2.814-2.814C100,77.198,98.889,76.014,97.472,75.869z M9.272,75.84V55.907h22.46V75.84H9.272z M31.733,50.279
	H9.272v-22.46h22.46V50.279z M37.361,27.819h9.82V75.84h-9.82V27.819z M52.811,27.819h10.382V75.84H52.811V27.819z M68.82,75.84
	V55.907h23.023V75.84H68.82z M91.844,50.279H68.82v-22.46h23.023V50.279z M49.917,9.451l5.764,5.31l-5.671,5.267l-5.718-5.392
	L49.917,9.451z"/>
</svg>
