<?xml version="1.0" encoding="utf-8"?>
<!-- Generator: Adobe Illustrator 16.0.0, SVG Export Plug-In . SVG Version: 6.00 Build 0)  -->
<!DOCTYPE svg PUBLIC "-//W3C//DTD SVG 1.1//EN" "http://www.w3.org/Graphics/SVG/1.1/DTD/svg11.dtd">
<svg version="1.1" id="Capa_1" xmlns="http://www.w3.org/2000/svg" xmlns:xlink="http://www.w3.org/1999/xlink" x="0px" y="0px"
	 width="100px" height="33.177px" viewBox="0 0 100 33.177" enable-background="new 0 0 100 33.177" xml:space="preserve">
<g>
	<path d="M0,33.177L13.517,0h6.144l13.432,33.177H27.67l-3.009-7.796H8.391l-3.051,7.796H0z M16.525,5l-6.271,15.762
		h12.585L16.525,5z"/>
	<path d="M67.416,16.61c0,1.979-0.354,3.92-1.06,5.827c-0.707,1.906-1.745,3.671-3.114,5.296
		c-1.372,1.626-3.222,2.938-5.552,3.941s-4.965,1.503-7.902,1.503H39.194V0h10.509c2.457,0,4.704,0.354,6.737,1.06
		c2.034,0.706,3.714,1.631,5.042,2.774c1.328,1.145,2.45,2.458,3.368,3.941c0.918,1.483,1.574,2.966,1.972,4.449
		C67.218,13.708,67.416,15.169,67.416,16.61z M61.949,16.61c0-1.356-0.24-2.704-0.722-4.047c-0.479-1.34-1.193-2.598-2.14-3.771
		c-0.946-1.171-2.238-2.125-3.876-2.859c-1.64-0.735-3.503-1.102-5.593-1.102h-5.213v23.517h5.17c2.09,0,3.954-0.345,5.593-1.037
		c1.638-0.693,2.938-1.611,3.898-2.756c0.961-1.143,1.681-2.393,2.16-3.749C61.709,19.45,61.949,18.05,61.949,16.61z"/>
	<path d="M80.636,33.177h-5.212V0h12.457c3.87,0,6.724,0.975,8.561,2.924c1.835,1.949,2.754,4.378,2.754,7.289
		c0,2.175-0.559,4.083-1.674,5.72c-1.115,1.639-2.748,2.839-4.896,3.602L100,33.177h-5.763l-6.695-12.584h-6.906V33.177z
		 M87.33,15.89c2.315,0,3.99-0.543,5.022-1.632c1.03-1.087,1.546-2.394,1.546-3.919c0-0.706-0.092-1.356-0.275-1.95
		c-0.184-0.592-0.502-1.172-0.954-1.737c-0.452-0.565-1.129-1.009-2.032-1.335c-0.905-0.325-2.007-0.487-3.307-0.487h-6.694v11.06
		H87.33z"/>
</g>
</svg>
