<?xml version="1.0" encoding="utf-8"?>
<!-- Generator: Adobe Illustrator 16.0.0, SVG Export Plug-In . SVG Version: 6.00 Build 0)  -->
<!DOCTYPE svg PUBLIC "-//W3C//DTD SVG 1.1//EN" "http://www.w3.org/Graphics/SVG/1.1/DTD/svg11.dtd">
<svg version="1.1" id="Capa_1" xmlns="http://www.w3.org/2000/svg" xmlns:xlink="http://www.w3.org/1999/xlink" x="0px" y="0px"
	 width="54px" height="54px" viewBox="0 0 54 54" enable-background="new 0 0 54 54" xml:space="preserve">
<g>
	<path fill="#5F686C" d="M47.988,0H6.012C2.697,0,0,2.697,0,6.012v41.977C0,51.303,2.697,54,6.012,54h41.977
		C51.303,54,54,51.303,54,47.988V6.012C54,2.697,51.303,0,47.988,0z M51.891,47.988c0,2.152-1.75,3.902-3.902,3.902H6.012
		c-2.152,0-3.902-1.75-3.902-3.902V6.012c0-2.152,1.75-3.902,3.902-3.902h41.977c2.152,0,3.902,1.75,3.902,3.902V47.988z"/>
	<path fill="#5F686C" d="M47.25,5.695H6.75c-0.583,0-1.055,0.472-1.055,1.055v40.5c0,0.582,0.472,1.055,1.055,1.055h40.5
		c0.582,0,1.055-0.473,1.055-1.055V6.75C48.305,6.167,47.832,5.695,47.25,5.695z M46.195,46.195H7.805V7.805h38.391V46.195z"/>
	<path fill="#5F686C" d="M36.07,32.906h-11.18V14.133c0-0.583-0.472-1.055-1.055-1.055H17.93c-0.583,0-1.055,0.472-1.055,1.055
		v25.734c0,0.582,0.472,1.055,1.055,1.055H36.07c0.582,0,1.055-0.473,1.055-1.055v-5.906C37.125,33.379,36.652,32.906,36.07,32.906z
		 M35.016,38.813H18.984V15.188h3.797v18.773c0,0.582,0.472,1.055,1.055,1.055h11.18V38.813z"/>
</g>
</svg>
