<?xml version="1.0" encoding="utf-8"?>
<!-- Generator: Adobe Illustrator 16.0.0, SVG Export Plug-In . SVG Version: 6.00 Build 0)  -->
<!DOCTYPE svg PUBLIC "-//W3C//DTD SVG 1.1//EN" "http://www.w3.org/Graphics/SVG/1.1/DTD/svg11.dtd">
<svg version="1.1" id="Capa_1" xmlns="http://www.w3.org/2000/svg" xmlns:xlink="http://www.w3.org/1999/xlink" x="0px" y="0px"
	 width="50px" height="50px" viewBox="0 0 50 50" enable-background="new 0 0 50 50" xml:space="preserve">
<path fill="#ff6600" d="M24.979,0C11.206,0,0,11.204,0,24.978s11.206,24.979,24.979,24.979c13.775,0,24.979-11.205,24.979-24.979
	S38.754,0,24.979,0z M24.979,7.086c8.832,0,16.169,6.437,17.617,14.859c-11.328-4.424-23.798-4.493-35.206-0.171
	C8.907,13.434,16.208,7.086,24.979,7.086z M8.078,30.799c1.003-0.689,2.508-1.383,4.736-2.117c4.363-0.754,8.573,1.203,8.329,6.74
	c-0.091,2.096,0.092,5.279-1.506,6.633C14.225,40.357,9.925,36.143,8.078,30.799z M30.529,41.979c-1.141-1.32-1.016-3.949-1.26-5.66
	c-0.737-5.24,2.275-7.619,7.344-7.607c1.365,0.004,3.711,0.697,5.433,1.639C40.314,35.84,35.997,40.188,30.529,41.979z"/>
</svg>
