<?xml version="1.0" encoding="utf-8"?>
<!-- Generator: Adobe Illustrator 24.3.0, SVG Export Plug-In . SVG Version: 6.00 Build 0)  -->
<svg version="1.1" id="Layer_1" xmlns="http://www.w3.org/2000/svg" xmlns:xlink="http://www.w3.org/1999/xlink" x="0px" y="0px"
	 viewBox="0 0 378.6 512" style="enable-background:new 0 0 378.6 512;" xml:space="preserve">
<g>
	<path d="M189.3,1C85.6,1,1.1,85.4,1,189.2c0,52.5,27.4,120.3,81.5,201.3c37.5,56,74.6,98.8,85.1,110.6l0.4,0.4
		c5.4,6,13.2,9.4,21.3,9.4c8,0.1,15.7-3.3,21.1-9.3l0,0c4.5-5,45-50.5,85.5-111.2c54.1-80.8,81.5-148.6,81.5-201.3
		c0.1-50.1-19.4-97.3-54.9-132.8C286.9,20.6,239.7,1,189.3,1z M293.5,346.9c-40.1,66.2-86.5,120.3-99.8,135.3l-4.5,5.1l-4.5-5.2
		c-13.3-15-59.6-68.9-99.8-135.4c-38.7-63.9-58.4-116.9-58.4-157.4c0-89.8,73-162.8,162.8-162.8c43.4,0,84.2,17,115.1,47.9
		c30.7,30.7,47.6,71.5,47.5,114.9C351.9,229.8,332.3,282.8,293.5,346.9z"/>
	<path d="M189.3,88.2c-55.7,0-101,45.3-101,101s45.3,101,101,101s101-45.3,101-101S245,88.2,189.3,88.2z M189.3,264.8
		c-41.7,0-75.6-33.9-75.6-75.6c0-41.7,33.9-75.6,75.6-75.6c41.7,0,75.6,33.9,75.6,75.6C264.9,230.9,231,264.8,189.3,264.8z"/>
</g>
</svg>
