<?xml version="1.0" encoding="utf-8"?>
<!-- Generator: Adobe Illustrator 24.3.0, SVG Export Plug-In . SVG Version: 6.00 Build 0)  -->
<svg version="1.1" id="Capa_1" xmlns="http://www.w3.org/2000/svg" xmlns:xlink="http://www.w3.org/1999/xlink" x="0px" y="0px"
	 viewBox="0 0 1080 1080" style="enable-background:new 0 0 1080 1080;" xml:space="preserve">
<g>
	<path class="st0" d="M540,0.2C242.3,0.2,0.2,242.3,0.2,540c0,100,27.5,197.5,79.6,282.2c-12.6,44.1-33.2,118.7-56.9,205.2
		c-0.4,1.3-0.7,2.4-0.9,3c-0.1,0.3-0.2,0.6-0.2,0.8l-0.2,0.7c-2.8,10.5,0.3,21.7,8.2,29.2s19.1,10.1,29.4,7l206.4-63.5
		c82.9,49.1,177.8,75.1,274.7,75.1c297.7,0,539.8-242.1,539.8-539.8S837.7,0.2,540,0.2z M95.1,989c12.3-44.7,32.9-119.6,45.4-163.2
		c2.4-8.3,1-17.3-3.6-24.4C86.4,723.5,59.6,633,59.6,540C59.6,275.2,275.2,59.6,540,59.6s480.4,215.5,480.4,480.4
		S804.8,1020.4,540,1020.4c-90.5,0-178.6-25.2-254.8-73.1c-4.7-2.9-10.2-4.5-15.8-4.5c-2.8,0-5.8,0.5-8.7,1.4L93.3,995.7L95.1,989z"
		/>
	<path class="st0" d="M874.4,650.6c-36.2-20-67.3-40.5-88-54l-0.6-0.4c-16.9-11-29.2-19-38.5-23.8c-30.1-14.9-53.1-3.6-62.1,5.4
		c-1,1-2.5,2.6-3.6,4.4c-26.5,39.7-54.9,68.9-63.2,74.1c-13.1-4.6-62.5-32.8-112.8-74.7c-49.5-41.3-82.9-81.7-90.2-109.3
		c34.2-35.9,47-59.8,47-87.7c0-17.8-21-60.8-33.6-84.9c-15.2-29.2-35.4-63.8-42.7-71.1c-14-13.9-40.8-16.4-83.9-7.8
		c-5.5,1.1-10.6,3.7-14.6,7.8c-4.9,4.9-119.2,121.4-64.6,263.2c58.4,152,208.8,328.6,400.7,357.5c22,3.2,42.7,4.9,61.6,4.9
		c57.5,0,103.8-14.7,137.9-43.8s56.1-72.8,65.6-130.1C890.6,668.3,884.8,656.4,874.4,650.6z M365,442.1c-5.4,5.4-8.4,12.6-8.4,20.2
		c0,62.3,72.1,131,115.1,166.4c50.1,41.2,120.8,85.2,146.2,85.2c27.8,0,62.9-30.3,104.3-90.1c6.7,3.5,18.4,11.1,32.8,20.5
		c18.6,12.2,43.8,28.7,73.4,45.8c-8.8,37.7-23.8,63.5-47,80.7l0,0c-32.6,24.5-82.9,31.8-149.5,21.8c-195-29.2-318-223-355.7-321.4
		C241,379.5,305.6,295,322.4,275.2c9.8-1.5,19.9-2.4,26-2.2c15.9,24.3,54.2,98.6,56.9,112.2C405.1,390.7,403.7,403.3,365,442.1z"/>
</g>
</svg>
