<?xml version="1.0" encoding="utf-8"?>
<!-- Generator: Adobe Illustrator 24.3.0, SVG Export Plug-In . SVG Version: 6.00 Build 0)  -->
<svg version="1.1" id="Capa_1" xmlns="http://www.w3.org/2000/svg" xmlns:xlink="http://www.w3.org/1999/xlink" x="0px" y="0px"
	 viewBox="0 0 1080 1080" style="enable-background:new 0 0 1080 1080;" xml:space="preserve">
<path d="M608.3,539.9l457.3-457.3c9.1-9.1,14.2-21.3,14.2-34.2c0-12.9-5-25.1-14.2-34.2C1056.5,5,1044.3,0,1031.4,0
	c-12.9,0-25.1,5-34.2,14.2L539.9,471.5L82.6,14.2C73.4,5,61.3,0,48.4,0C35.4,0,23.3,5,14.2,14.2C5,23.3,0,35.4,0,48.4
	s5,25.1,14.2,34.2l457.3,457.3L14.2,997.2C5,1006.3,0,1018.5,0,1031.4c0,12.9,5,25.1,14.2,34.2c9.4,9.4,21.8,14.1,34.2,14.1
	c12.4,0,24.8-4.7,34.2-14.1l457.3-457.3l457.3,457.3c9.1,9.1,21.3,14.2,34.2,14.2c12.9,0,25.1-5,34.2-14.2
	c18.9-18.9,18.9-49.5,0-68.4L608.3,539.9z"/>
</svg>
