<?xml version="1.0" encoding="utf-8"?>
<svg version="1.1" xmlns="http://www.w3.org/2000/svg" xmlns:xlink="http://www.w3.org/1999/xlink" height="20.000000000000057" width="25.29987358958715">
  <defs>
    <path id="path-1" opacity="1" fill-rule="evenodd" d="M24.281911246599794,9.007339306033245 L1.1173369668375228,9.007339306033245 C0.5551492731136158,9.007339306033245 0.099374623850494,9.474592478031349 0.099374623850494,10.050938669236787 C0.099374623850494,10.627335319748056 0.5551492731136158,11.09453803244033 1.1173369668375228,11.09453803244033 L24.281911246599797,11.09453803244033 C24.844148160048245,11.09453803244033 25.299873589586824,10.627335319748056 25.299873589586824,10.050938669236787 C25.299873589586824,9.474592478031349 24.844148160048242,9.007339306033245 24.281911246599794,9.007339306033245Z"/>
    <path id="path-2" opacity="1" fill-rule="evenodd" d="M2.557013909704589,10.050938669236798 L10.523866183319914,1.8833935901544279 C10.92141389844932,1.4758337769547771 10.92141389844932,0.8150691670935131 10.523866183319914,0.4075093538938622 C10.126318468190508,4.263256414560601e-14 9.481786175307066,4.263256414560601e-14 9.08423846017766,0.4075093538938622 L0.39754771512893666,9.312971321453599 C-4.689582056016661e-13,9.72053113465325 -4.689582056016661e-13,10.381295744514516 0.39754771512893666,10.788855557714166 L9.08423846017766,19.694317525273906 C9.282987707880093,19.898122661526646 9.543556929607846,20.0000000000001 9.804076931611059,20.0000000000001 C10.064596933614272,20.0000000000001 10.325166155342025,19.898122661526646 10.523915403044457,19.694317525273906 C10.921463118173863,19.286757712074255 10.921463118173863,18.625993102212988 10.523915403044457,18.218433289013337 "/>
  </defs>
  <g opacity="1">
    <g opacity="1">
      <use xlink:href="#path-1" fill="rgb(255,255,255)" fill-opacity="1"/>
    </g>
    <g opacity="1">
      <use xlink:href="#path-2" fill="rgb(255,255,255)" fill-opacity="1"/>
    </g>
  </g>
</svg>