<?xml version="1.0" encoding="utf-8"?>
<!-- Generator: Adobe Illustrator 16.0.0, SVG Export Plug-In . SVG Version: 6.00 Build 0)  -->
<!DOCTYPE svg PUBLIC "-//W3C//DTD SVG 1.1//EN" "http://www.w3.org/Graphics/SVG/1.1/DTD/svg11.dtd">
<svg version="1.1" id="Capa_1" xmlns="http://www.w3.org/2000/svg" xmlns:xlink="http://www.w3.org/1999/xlink" x="0px" y="0px"
	 width="47.021px" height="46.948px" viewBox="0 0 47.021 46.948" enable-background="new 0 0 47.021 46.948" xml:space="preserve">
<g>
	<g>
		<path fill="#FFFFFF" d="M28.602,45.948c-6.787,0-14.004-6.203-17.702-9.9C7.203,32.351,1,25.136,1,18.348
			c0.053-3.996,2.638-7.485,6.433-8.696c0.055-0.018,0.111-0.03,0.168-0.038c2.102-0.286,3.119,1.221,3.651,1.993l0.099,0.144
			l3.892,5.981c1.05,1.688,0.623,3.911-0.962,5.079l-0.223,0.182c-0.837,0.676-1.389,1.177-1.431,1.958
			c-0.047,0.883,0.544,2.583,3.631,5.669c3.003,3.003,4.687,3.634,5.57,3.634c0.84,0,1.337-0.541,2.056-1.433l0.216-0.267
			c0.679-0.924,1.823-1.502,3.026-1.502c0.708,0,1.4,0.197,2.003,0.571l6.245,4.097c0.758,0.515,2.335,1.587,1.953,3.673
			c-0.008,0.042-0.018,0.084-0.03,0.124c-1.211,3.794-4.7,6.379-8.682,6.433C28.611,45.948,28.607,45.948,28.602,45.948z
			 M7.952,11.586C5.027,12.561,3.041,15.272,3,18.361c0,4.418,3.395,10.354,9.314,16.272c5.917,5.917,11.852,9.312,16.281,9.314
			c3.094-0.045,5.808-2.04,6.775-4.975c0.097-0.655-0.259-1.016-1.121-1.602l-0.199-0.137l-5.996-3.927
			c-0.715-0.443-1.842-0.254-2.377,0.474l-0.236,0.292c-0.699,0.867-1.755,2.178-3.613,2.178c-1.887,0-4.106-1.341-6.984-4.22
			c-2.978-2.978-4.317-5.262-4.214-7.189c0.092-1.73,1.294-2.7,2.172-3.408l0.249-0.202c0.793-0.586,0.996-1.638,0.504-2.429
			l-3.95-6.063C9.103,12.013,8.699,11.522,7.952,11.586z"/>
	</g>
	<g>
		<path fill="#FFFFFF" d="M27.813,25.227c-0.129,0-0.259-0.024-0.383-0.076c-0.374-0.154-0.617-0.52-0.617-0.924v-4.018h-4.307
			c-1.58,0-2.865-1.285-2.865-2.865V3.863C19.641,2.285,20.926,1,22.506,1h20.65c1.58,0,2.865,1.285,2.865,2.863v13.48
			c0,1.58-1.285,2.865-2.865,2.865h-9.91l-4.726,4.725C28.329,25.125,28.073,25.227,27.813,25.227z M22.506,3
			c-0.477,0-0.865,0.387-0.865,0.863v13.48c0,0.477,0.388,0.865,0.865,0.865h5.307c0.553,0,1,0.448,1,1v2.604l3.312-3.311
			c0.188-0.188,0.441-0.293,0.707-0.293h10.324c0.478,0,0.865-0.388,0.865-0.865V3.863C44.021,3.387,43.633,3,43.156,3H22.506z"/>
	</g>
	<g>
		<path fill="#FFFFFF" d="M32.832,12.321c-0.946,0-1.717-0.77-1.717-1.717s0.771-1.717,1.717-1.717s1.716,0.771,1.716,1.717
			S33.778,12.321,32.832,12.321z M32.832,10.321c-0.156,0-0.284,0.127-0.284,0.283c0,0.156,0.128,0.283,0.284,0.283
			s0.283-0.127,0.283-0.283C33.115,10.448,32.988,10.321,32.832,10.321z"/>
	</g>
	<g>
		<path fill="#FFFFFF" d="M27.094,12.321c-0.945,0-1.715-0.77-1.715-1.717s0.77-1.717,1.715-1.717c0.947,0,1.719,0.771,1.719,1.717
			S28.042,12.321,27.094,12.321z M27.094,10.321c-0.155,0-0.281,0.127-0.281,0.283c0,0.156,0.126,0.283,0.281,0.283
			c0.157,0,0.285-0.127,0.285-0.283C27.379,10.448,27.251,10.321,27.094,10.321z"/>
	</g>
</g>
</svg>
