<svg xmlns="http://www.w3.org/2000/svg" xmlns:xlink="http://www.w3.org/1999/xlink" height="19.999999999999545" width="22.824527925939037">
  <g opacity="1">
    <g opacity="1">
      <g opacity="1">
        <path fill="rgb(170,170,170)" fill-opacity="1" opacity="1" fill-rule="evenodd" d="M0 7.170349160158732L0 18.574483240017223C0 19.361719168650417 0.638649195536819 19.999999999999535 1.4265337977963 19.999999999999535L5.7061351911852 19.999999999999535L5.7061351911852 5.744832400176421L1.4265337977963 5.744832400176421C0.638649195536819 5.744832400176421 0 6.383026275003182 0 7.170349160158732L0 7.170349160158732Z"/>
      </g>
      <g opacity="1">
        <path fill="rgb(170,170,170)" fill-opacity="1" opacity="1" fill-rule="evenodd" d="M20.190189331026588 7.170049801639969L15.976065838956552 7.170049801639969C15.607590732451971 7.170049801639969 15.423005818219915 6.924343456339138 15.361012938969083 6.818543027930009C15.299020059718247 6.713438964458134 15.173640577696135 6.4329293402207135 15.35195773038081 6.111352716403343L16.83769268078565 3.437810288224112C17.163678478122872 2.852428958321174 17.197112150741823 2.1640326597581145 16.93033378276186 1.5494139811079402C16.66355484416838 0.934103926829174 16.136964158049857 0.4879328616390695 15.48568300573355 0.3257532453726416L14.438072247976894 0.06403692134044837C14.183134966438923 1.9895196601282805e-13 13.912873858845021 0.08143834698122836 13.735253282613808 0.2784218123909486L8.047235070660637 6.593019148917008C7.457257781770832 7.249396915534104 7.132665707954061 8.095798917290363 7.132665707954061 8.976996357641031L7.132665707954061 16.435898762907694C7.132665707954061 18.400859575202517 8.73263748488643 19.99969066286348 10.699000202444802 19.99969066286348L17.79475049673931 19.998994583029578C19.396819278354442 19.998994583029578 20.811512845629032 18.92080783265048 21.234308932619896 17.3776545786009L22.756962577711707 10.394846260833132C22.80154175889284 10.200648112620744 22.824527925936874 10.001576122605972 22.824527925936874 9.802505558107962C22.824527925936874 8.351229710272767 21.64248347614349 7.17003226778382 20.190176492222413 7.17003226778382L20.190189331026588 7.170049801639969Z"/>
      </g>
    </g>
  </g>
</svg>